<?xml version="1.0" encoding="UTF-8"?>
<svg version="1.1" xmlns="http://www.w3.org/2000/svg" width="1024" height="1024">
<path d="M0 0 C337.92 0 675.84 0 1024 0 C1024 337.92 1024 675.84 1024 1024 C686.08 1024 348.16 1024 0 1024 C0 686.08 0 348.16 0 0 Z " fill="#D7EAF5" transform="translate(0,0)"/>
<path d="M0 0 C8.91960541 6.87792176 16.03563225 16.32665614 18.375 27.5 C18.375 29.81 18.375 32.12 18.375 34.5 C67.875 34.5 117.375 34.5 168.375 34.5 C169.035 31.53 169.695 28.56 170.375 25.5 C175.67116442 11.221827 185.89137833 1.11742318 199.375 -5.5 C209.80672217 -9.33927789 224.73546919 -9.52306473 235.125 -5.5 C248.33095284 1.28348944 255.80666966 11.09662546 261.52734375 24.54296875 C262.5090464 27.96761808 262.520684 30.95502261 262.375 34.5 C262.95652832 34.47905273 263.53805664 34.45810547 264.13720703 34.43652344 C297.34843189 33.40984108 325.6382233 40.8625612 350.375 63.5 C351.18710937 64.21800781 351.99921875 64.93601562 352.8359375 65.67578125 C362.20533281 74.40411267 369.16363426 85.87629536 374.375 97.5 C375.179375 99.170625 375.179375 99.170625 376 100.875 C379.90227393 111.16281309 381.55620619 121.64720226 381.46592712 132.61460876 C381.46380944 133.39096902 381.46169176 134.16732927 381.45950991 134.9672156 C381.4515056 137.54711251 381.43646326 140.12692118 381.42163086 142.70678711 C381.41483452 144.56525984 381.40862428 146.42373479 381.4029541 148.2822113 C381.39053429 152.2741427 381.37594729 156.26605859 381.36027336 160.25797844 C381.33748883 166.57462673 381.33187464 172.8912157 381.33094788 179.207901 C381.33076611 180.27555834 381.33058434 181.34321568 381.33039707 182.44322628 C381.32994749 186.8438005 381.33002924 191.24437461 381.3302325 195.64494884 C381.32996764 208.12476455 381.31313405 220.60407849 381.24829102 233.08374023 C381.19683149 243.01010723 381.18065588 252.93582612 381.20575243 262.86230475 C381.21768496 268.11063481 381.21181902 273.3575801 381.16306877 278.60572624 C381.11759709 283.54190332 381.11898031 288.47587579 381.15581512 293.41210365 C381.16107117 295.21926588 381.14934353 297.02657288 381.11902809 298.83348846 C380.75688266 308.71389981 380.75688266 308.71389981 384.58207893 317.52260017 C387.07270054 319.77674999 389.58648889 321.63766524 392.375 323.5 C415.09821212 345.59601574 428.0309007 380.02105303 428.86889648 411.234375 C428.94413962 445.32854251 415.65160317 478.40773986 391.6875 502.6875 C380.42102412 513.78172587 368.48989759 522.08657498 354.13671875 528.67724609 C352.61423883 529.38827122 351.11675077 530.15235933 349.625 530.92578125 C340.74586384 535.40697028 331.03579253 537.40273788 321.375 539.5 C320.24707031 539.75007812 319.11914062 540.00015625 317.95703125 540.2578125 C283.75243756 546.41377233 248.05817954 538.84365644 219.375 519.5 C216.26162528 517.28471414 213.29101958 514.96783758 210.375 512.5 C209.60929687 511.86707031 208.84359375 511.23414063 208.0546875 510.58203125 C203.88228332 507.05656779 203.88228332 507.05656779 202.375 505.5 C202.375 504.84 202.375 504.18 202.375 503.5 C201.74031644 503.5018986 201.10563288 503.5037972 200.45171648 503.50575334 C162.78180787 503.61779913 125.11192402 503.70351113 87.4418827 503.75532665 C82.91234535 503.7615797 78.38280833 503.76805136 73.85327148 503.7746582 C72.50072599 503.77662553 72.50072599 503.77662553 71.12085634 503.7786326 C56.54703786 503.8003513 41.97331863 503.8397532 27.39955891 503.88576398 C12.43020874 503.93262728 -2.53908967 503.9603162 -17.50851017 503.97044247 C-26.73524202 503.97728123 -35.96169324 503.99883021 -45.18833864 504.03958233 C-51.52723094 504.06614281 -57.86597951 504.07397112 -64.20492332 504.06750689 C-67.8547267 504.06432451 -71.50404195 504.06897965 -75.1537571 504.09602737 C-90.05911864 504.20106459 -103.65985296 504.11798491 -117.625 498.5 C-118.51203834 498.1482285 -119.39907667 497.796457 -120.31299496 497.43402576 C-122.24959304 496.62558463 -124.0851541 495.73443264 -125.9375 494.75 C-126.5886377 494.41347412 -127.23977539 494.07694824 -127.91064453 493.73022461 C-134.32195682 490.31080566 -140.03742677 486.13768578 -145.625 481.5 C-146.48609375 480.80261719 -147.3471875 480.10523438 -148.234375 479.38671875 C-168.29616117 462.34666124 -179.29048686 437.24696412 -182.625 411.5 C-182.98635647 406.1250499 -183.00299539 400.7806702 -182.953125 395.3984375 C-182.9500498 393.90459385 -182.94818712 392.41074727 -182.94744873 390.91690063 C-182.94289272 387.8092318 -182.92866385 384.70182887 -182.90625 381.59423828 C-182.87812247 377.68228517 -182.86704586 373.7705404 -182.8625679 369.85849571 C-182.85731812 366.03845145 -182.84287727 362.21845477 -182.828125 358.3984375 C-182.82624428 357.70619457 -182.82436356 357.01395164 -182.82242584 356.30073166 C-182.78921784 346.83685781 -182.46371572 337.40936615 -182.00422955 327.95684624 C-181.57670272 318.96333585 -181.3682737 309.97207332 -181.20973396 300.97030449 C-181.15802442 298.03524642 -181.10264561 295.10027475 -181.04649353 292.16529846 C-180.96618117 287.95324917 -180.88721096 283.74117812 -180.80932617 279.52908325 C-180.60317743 268.42413711 -180.38298903 257.31946615 -180.16015625 246.21484375 C-180.13794636 245.10748808 -180.11573647 244.00013241 -180.09285355 242.8592205 C-179.49780842 213.34486419 -178.69768941 183.8386991 -177.74676514 154.33380127 C-177.62404347 150.46988341 -177.506854 146.60583205 -177.39111328 142.74169922 C-177.20698368 136.62159953 -177.00939548 130.50208659 -176.80053711 124.38278198 C-176.72678518 122.17565983 -176.65694135 119.9684026 -176.59155273 117.76101685 C-175.72420894 88.89154667 -175.72420894 88.89154667 -168.9375 76.25 C-168.58864746 75.580896 -168.23979492 74.91179199 -167.88037109 74.22241211 C-159.74288774 59.08201594 -147.61784524 49.27930649 -132.625 41.5 C-131.4184375 40.86578125 -131.4184375 40.86578125 -130.1875 40.21875 C-117.88255596 34.24723304 -105.15816936 34.10112821 -91.8125 34.3125 C-90.13738195 34.32758823 -88.46225061 34.34126925 -86.78710938 34.35351562 C-82.73273724 34.38616117 -78.67902056 34.43770908 -74.625 34.5 C-74.58109131 33.91847168 -74.53718262 33.33694336 -74.49194336 32.73779297 C-73.35709909 20.20157247 -66.78820487 10.89629883 -57.625 2.5 C-40.72175808 -10.68983357 -17.92173551 -11.83278273 0 0 Z " fill="#161F40" transform="translate(413.625,230.5)"/>
<path d="M0 0 C164.67 0 329.34 0 499 0 C499 41.58 499 83.16 499 126 C488.96120272 124.88457808 488.96120272 124.88457808 484.125 123.5625 C473.54160822 120.68297318 463.4661171 119.60962465 452.5 119.625 C451.84214508 119.62554382 451.18429016 119.62608765 450.50650024 119.62664795 C439.24603815 119.66928248 428.78687421 120.72959098 418 124 C417.28102539 124.21430664 416.56205078 124.42861328 415.82128906 124.64941406 C381.90230617 135.04760293 352.78906583 157.32891183 335.9375 188.8125 C333.03503379 194.44051531 330.64275957 200.10314549 328.8515625 206.19140625 C328.16129395 208.46802593 327.37776051 210.605281 326.50390625 212.8125 C318.68151162 233.49325948 319.85232316 259.80456884 326.1015625 280.6796875 C327 284 327 284 327 288 C290.91399142 288.09163851 254.82800331 288.16208081 218.74190225 288.20426132 C214.47759285 288.2092639 210.21328367 288.21444121 205.94897461 288.21972656 C205.10005943 288.2207758 204.25114426 288.22182505 203.37650438 288.22290608 C189.64711557 288.24029162 175.91779403 288.27181906 162.18844507 288.30861118 C148.0914818 288.34607221 133.99455366 288.36824675 119.89754266 288.37635398 C111.20518332 288.38183107 102.51301419 288.39910387 93.82071342 288.43166587 C87.85283048 288.45287755 81.88504527 288.45918506 75.91712741 288.45400551 C72.47850915 288.45145401 69.04022229 288.4552497 65.60166359 288.4768219 C61.861852 288.49683556 58.12284251 288.49189678 54.38301086 288.48101807 C53.31195754 288.49266943 52.24090421 288.5043208 51.13739473 288.51632524 C34.96079703 288.3898506 20.88687309 281.4481252 9.25 270.4453125 C5.48179255 266.35000371 2.59013509 261.91337101 0 257 C-0.40820984 256.32290482 -0.81641968 255.64580963 -1.23699951 254.94819641 C-6.12843669 245.89285302 -5.67379789 237.13153428 -5.55859375 227.12890625 C-5.55508642 225.26986962 -5.55360257 223.41082822 -5.55400085 221.55178833 C-5.54807191 216.58549427 -5.50968651 211.61996011 -5.46353912 206.65389633 C-5.42852703 202.49721847 -5.41169198 198.34053731 -5.39419556 194.18375492 C-5.27714514 167.56827857 -4.78040395 140.9877524 -3.7159729 114.39257812 C-3.16000051 100.44311715 -2.7692881 86.49602232 -2.45703125 72.5390625 C-2.42408085 71.07155643 -2.42408085 71.07155643 -2.39046478 69.57440376 C-2.17109365 59.76047351 -1.96054124 49.94637032 -1.75684452 40.13210297 C-1.68027865 36.4795891 -1.60067247 32.82714523 -1.52048302 29.17470932 C-1.46630025 26.64990144 -1.41664736 24.12503137 -1.36714172 21.60012817 C-1.33346719 20.05478385 -1.29955998 18.50944457 -1.26538086 16.96411133 C-1.25341234 16.28641536 -1.24144382 15.60871939 -1.22911263 14.91048717 C-1.10976191 9.84957001 -0.56505272 5.08547444 0 0 Z " fill="#FDFDFD" transform="translate(252,391)"/>
<path d="M0 0 C1.54882234 0.01004992 3.09765099 0.01917221 4.64648438 0.02734375 C8.41031428 0.04919793 12.17383623 0.08361657 15.9375 0.125 C15.9468457 1.37522949 15.95619141 2.62545898 15.96582031 3.91357422 C16.0059623 8.59182192 16.07178677 13.26942864 16.14501953 17.94726562 C16.17308953 19.9644339 16.19437292 21.98170931 16.20849609 23.99902344 C16.23012028 26.91396386 16.27686818 29.82763491 16.328125 32.7421875 C16.32935364 33.63114716 16.33058228 34.52010681 16.33184814 35.43600464 C16.54727197 44.83290631 19.62113843 52.60465812 26.08203125 59.4375 C33.84151906 66.49454997 43.07333783 67.59755834 53.20703125 67.4375 C60.54021517 66.82320187 66.90917372 64.11681812 72.3359375 59.1015625 C85.78834315 42.49932529 81.41988321 21.82967154 81.9375 1.125 C140.3475 1.125 198.7575 1.125 258.9375 1.125 C259.2675 14.655 259.5975 28.185 259.9375 42.125 C267.44448354 57.59371824 267.44448354 57.59371824 280.9375 66.125 C291.37927822 68.69841697 302.01314984 68.4634277 311.37890625 63.01171875 C319.23015002 57.22217564 322.8647026 49.49991797 324.9375 40.125 C325.67766065 33.40456918 325.63463543 26.62814166 325.6875 19.875 C325.71571501 18.05075362 325.74564997 16.226533 325.77734375 14.40234375 C325.85054644 9.97660955 325.90051954 5.55117898 325.9375 1.125 C333.74793705 1.07410715 341.558331 1.03918551 349.36889648 1.01513672 C352.02359839 1.00624054 354.67808227 0.99147944 357.33276367 0.97412109 C361.15806799 0.9497424 364.98322566 0.93848688 368.80859375 0.9296875 C369.98707382 0.91936493 371.16555389 0.90904236 372.37974548 0.89840698 C378.90455144 0.89752732 384.63112209 1.4337095 390.9375 3.125 C391.79859375 3.35058594 392.6596875 3.57617188 393.546875 3.80859375 C406.19081135 8.26165892 417.77274371 19.87768656 423.71875 31.65234375 C433.63777406 53.43088466 428.9375 71.29542554 428.9375 98.125 C264.2675 98.125 99.5975 98.125 -70.0625 98.125 C-70.0625 76.83150773 -70.0625 76.83150773 -69.85498047 68.01513672 C-69.82658748 66.66826458 -69.80546516 65.32122013 -69.79150391 63.97412109 C-69.60413081 46.70664889 -65.19999345 30.95762719 -53.19140625 18.0625 C-37.55177906 3.82900443 -20.58135461 -0.23315417 0 0 Z " fill="#8571E7" transform="translate(322.0625,279.875)"/>
<path d="M0 0 C1.71494468 1.61694784 3.37883197 3.2890442 5 5 C6.02077093 5.96413547 7.04983446 6.91954781 8.0859375 7.8671875 C8.62049561 8.35614502 9.15505371 8.84510254 9.70581055 9.34887695 C10.25664307 9.85249756 10.80747559 10.35611816 11.375 10.875 C12.53574235 11.94858542 13.69590446 13.02279853 14.85546875 14.09765625 C16.57209079 15.68816735 18.29545453 17.26056275 20.05078125 18.80859375 C34.75009701 32.31512493 43.09878205 52.86860352 47 72 C47.1757959 72.75676025 47.3515918 73.51352051 47.53271484 74.29321289 C48.40808928 79.36389022 48.18592008 84.51203244 48.18530273 89.64526367 C48.18747484 91.66411895 48.20561801 93.68241408 48.22460938 95.70117188 C48.26229737 121.01494296 37.34103013 143.13932001 21 162 C20.01773438 163.13501953 20.01773438 163.13501953 19.015625 164.29296875 C0.66453083 183.93805033 -26.70377725 195.25096095 -53.16796875 196.21875 C-86.09820148 196.99718047 -115.33116764 187.2282876 -139.49707031 164.48046875 C-143.40952075 160.62648898 -146.75721094 156.42088097 -150 152 C-150.77085937 150.9584375 -151.54171875 149.916875 -152.3359375 148.84375 C-165 131.35092544 -165 131.35092544 -165 124 C-165.66 124 -166.32 124 -167 124 C-169.1258831 117.06557181 -169.31091076 110.59943274 -169.25 103.375 C-169.24250732 102.21508545 -169.23501465 101.0551709 -169.22729492 99.86010742 C-168.85777046 70.42407815 -157.31486246 44.68313018 -136.875 23.5 C-135.60455481 22.31025932 -134.31247503 21.14320741 -133 20 C-131.90171875 19.04287109 -131.90171875 19.04287109 -130.78125 18.06640625 C-96.49643059 -10.4857242 -40.69955444 -24.75294539 0 0 Z " fill="#56DF70" transform="translate(757,536)"/>
<path d="M0 0 C6.3386667 0.08541457 12.67743618 0.16289462 19.01623154 0.23810768 C24.11788777 0.29871435 29.21936692 0.36390689 34.32080078 0.44113159 C42.9934535 0.56569458 51.64595378 0.63804208 60.3168335 0.39465332 C61.70711391 0.36333648 63.097403 0.33240233 64.48770142 0.30189514 C66.93998268 0.23880774 69.39181998 0.14746719 71.84152222 0.01853943 C80.42900333 -0.18613231 85.24778728 2.55721719 92.03656006 7.60510254 C97.81419284 11.2174578 103.52383086 13.61610959 110.04437256 15.61291504 C113.03656006 16.60510254 113.03656006 16.60510254 116.29827881 18.08557129 C137.89049761 27.48065886 166.57223234 25.60422134 189.03656006 20.60510254 C189.72024658 20.45524902 190.40393311 20.30539551 191.1083374 20.15100098 C199.55452158 18.24072355 207.30037153 15.49355519 215.03656006 11.60510254 C216.40065537 10.94003814 217.76527837 10.27605543 219.13031006 9.61291504 C220.57876808 8.90308115 222.02668628 8.19214464 223.47406006 7.48010254 C224.1610498 7.14333496 224.84803955 6.80656738 225.55584717 6.45959473 C228.95875147 4.76003378 232.09518883 3.02740826 235.03656006 0.60510254 C235.69656006 0.93510254 236.35656006 1.26510254 237.03656006 1.60510254 C234.39656006 3.91510254 231.75656006 6.22510254 229.03656006 8.60510254 C235.96132649 9.71970535 242.88282281 10.7226399 249.84906006 11.54260254 C279.60233231 15.17087479 279.60233231 15.17087479 286.03656006 21.60510254 C285.97406006 23.54260254 285.97406006 23.54260254 285.03656006 25.60510254 C272.6614404 35.27316477 251.60925545 35.15597403 236.53656006 36.66760254 C233.40087022 36.98920345 230.26558033 37.31459681 227.13031006 37.64025879 C226.36696854 37.71857941 225.60362701 37.79690002 224.81715393 37.87759399 C219.70614388 38.4084514 214.61217862 39.03032202 209.51702881 39.69494629 C203.61357069 40.44631545 197.79455712 40.93659723 191.84906006 41.10510254 C189.85939954 41.17722243 187.86982031 41.25160603 185.88031006 41.32775879 C184.25415771 41.38987549 184.25415771 41.38987549 182.59515381 41.45324707 C177.28934219 41.67966137 171.98786683 41.97613425 166.68571472 42.27403259 C161.08569557 42.5868232 155.48474344 42.88152894 149.88382053 43.17760658 C145.11683469 43.43204186 140.35198261 43.70645027 135.58777046 44.00812531 C97.57955997 46.37506294 59.47645701 45.87488866 21.41408223 45.80569857 C13.74279483 45.7924046 6.07153613 45.78999786 -1.59976125 45.79064864 C-10.97859054 45.7913355 -20.35740371 45.78433746 -29.73622799 45.77520204 C-32.35608677 45.77311937 -34.97594278 45.77236776 -37.59580231 45.77196312 C-56.25612107 45.76634139 -74.90480884 45.60900914 -93.56011963 45.15710449 C-94.39106722 45.13775231 -95.22201482 45.11840012 -96.07814264 45.09846151 C-105.08765037 44.88372254 -114.05365829 44.54016667 -123.039361 43.82726288 C-127.39994058 43.49596271 -131.76113867 43.34672164 -136.13140869 43.21057129 C-138.06428801 43.14403458 -139.99714852 43.07694973 -141.92999268 43.00939941 C-142.94052704 42.97451416 -143.9510614 42.93962891 -144.99221802 42.90368652 C-166.90077557 42.13321988 -188.78287653 41.02458156 -210.66608047 39.73590469 C-212.88784644 39.60586888 -215.10974449 39.47836221 -217.33169556 39.35153198 C-220.86718299 39.14920908 -224.40218179 38.93976758 -227.9369278 38.72488976 C-229.85485708 38.60951941 -231.77312812 38.49987414 -233.69140625 38.39045715 C-240.35973587 37.97403583 -246.84839823 37.25074641 -253.42178345 36.04444885 C-256.84076031 35.45345047 -260.18655107 35.2249388 -263.65093994 35.04260254 C-269.85835911 34.71018337 -269.85835911 34.71018337 -270.96343994 33.60510254 C-272.97938576 33.37082476 -275.00191394 33.1917413 -277.02593994 33.04260254 C-278.1306665 32.95881348 -279.23539307 32.87502441 -280.37359619 32.78869629 C-281.22824463 32.72811035 -282.08289307 32.66752441 -282.96343994 32.60510254 C-282.96343994 31.94510254 -282.96343994 31.28510254 -282.96343994 30.60510254 C-283.87093994 30.66697754 -284.77843994 30.72885254 -285.71343994 30.79260254 C-291.64863462 30.79260254 -298.97739662 29.71111277 -303.88531494 26.24963379 C-304.96343994 24.60510254 -304.96343994 24.60510254 -304.85406494 22.55041504 C-303.54101432 19.68243606 -301.32349855 18.75930053 -298.54547119 17.48791504 C-291.36279762 15.03211439 -283.52684697 14.25331617 -275.96343994 14.60510254 C-275.96343994 13.94510254 -275.96343994 13.28510254 -275.96343994 12.60510254 C-261.28291548 10.24993819 -246.68240023 9.01060954 -231.84844971 8.2520752 C-231.14959656 8.21523621 -230.45074341 8.17839722 -229.73071289 8.14044189 C-227.81543267 8.04071112 -225.89981832 7.94745804 -223.98419189 7.85461426 C-220.91743181 7.72146648 -220.91743181 7.72146648 -217.96343994 6.60510254 C-206.03823115 4.96191267 -193.7914858 5.27125193 -181.77667236 5.05285645 C-178.98858649 5.0008675 -176.20063721 4.94377154 -173.41265869 4.88635254 C-172.14527107 4.86598938 -172.14527107 4.86598938 -170.85227966 4.84521484 C-170.0506691 4.82849731 -169.24905853 4.81177979 -168.42315674 4.79455566 C-167.72876999 4.78202759 -167.03438324 4.76949951 -166.31895447 4.7565918 C-163.78779665 4.62534879 -163.78779665 4.62534879 -160.60205078 4.11657715 C-157.14233476 3.63024954 -153.77486466 3.38108026 -150.28594971 3.23205566 C-148.9941127 3.17529663 -147.7022757 3.1185376 -146.37129211 3.06005859 C-144.96581725 3.00198431 -143.56033503 2.94408775 -142.15484619 2.88635254 C-140.66882973 2.82312245 -139.18282222 2.75968181 -137.69682312 2.69604492 C-134.56402555 2.56269837 -131.43113517 2.43188185 -128.29815674 2.30285645 C-125.17562075 2.17411585 -122.05323709 2.04243553 -118.93096924 1.90734863 C-107.94323471 1.43198415 -96.95451235 0.99605237 -85.96343994 0.60510254 C-84.78222565 0.56279951 -84.78222565 0.56279951 -83.57714844 0.51964188 C-55.70407755 -0.46627106 -27.88482067 -0.38134011 0 0 Z " fill="#87C8E9" transform="translate(550.9634399414063,747.3948974609375)"/>
<path d="M0 0 C0.46148437 0.35191406 0.92296875 0.70382812 1.3984375 1.06640625 C3.5890759 2.72453769 5.7926119 4.36423194 8 6 C8.77085937 6.57621094 9.54171875 7.15242187 10.3359375 7.74609375 C23.70342712 17.45807245 36.70853017 22.47241892 53.25639343 22.39872742 C54.44185519 22.40537424 55.62731694 22.41202107 56.84870178 22.41886932 C60.10759783 22.43419269 63.36618311 22.43635563 66.62510288 22.43273985 C70.15122328 22.43211235 73.67726906 22.44877007 77.20335388 22.46325684 C83.30206046 22.48598086 89.40071016 22.4979172 95.49945641 22.50238609 C104.31704632 22.50886304 113.13453368 22.53182749 121.95208213 22.55872939 C136.26027663 22.60193913 150.56846678 22.63193902 164.87670898 22.65356445 C178.77028532 22.6745916 192.66382625 22.70188181 206.55737305 22.73754883 C207.41473781 22.73974765 208.27210258 22.74194648 209.1554481 22.74421193 C213.45688391 22.75528202 217.75831939 22.76647475 222.05975473 22.77772844 C257.70647291 22.87083118 293.35320733 22.94246727 329 23 C329.27870941 23.5408725 329.55741882 24.081745 329.84457397 24.63900757 C331.12851132 27.12385806 332.41966276 29.60489257 333.7109375 32.0859375 C334.14913818 32.93663818 334.58733887 33.78733887 335.03881836 34.66381836 C338.12695844 40.58061491 341.49753318 45.89208807 345.6015625 51.1640625 C347 53 347 53 347 54 C311.40652808 54.04581308 275.81306135 54.0810373 240.219566 54.10213066 C236.01405307 54.10463197 231.80854019 54.10722062 227.60302734 54.10986328 C226.34720481 54.11065021 226.34720481 54.11065021 225.06601211 54.11145304 C211.52350366 54.12014726 197.98101226 54.13591181 184.4385139 54.15430559 C170.53478445 54.17303201 156.63106389 54.18412252 142.72732234 54.18817699 C134.15325346 54.19091636 125.57923276 54.19955745 117.00517872 54.21583293 C111.1195489 54.22643368 105.23394386 54.22959365 99.3483052 54.22700275 C95.95647061 54.22572625 92.56478746 54.22873998 89.17295647 54.23841095 C85.48553837 54.24840695 81.798324 54.24595179 78.11090088 54.24050903 C76.52329732 54.24924756 76.52329732 54.24924756 74.90362096 54.25816262 C64.94778605 54.21862533 55.12904762 53.15878836 46 49 C45.09765625 48.60039063 44.1953125 48.20078125 43.265625 47.7890625 C24.15447996 38.82761884 7.67557769 22.97964444 0 3 C0 2.01 0 1.02 0 0 Z " fill="#B2BDF7" transform="translate(254,665)"/>
<path d="M0 0 C164.34 0 328.68 0 498 0 C498 41.58 498 83.16 498 126 C487.96120272 124.88457808 487.96120272 124.88457808 483.125 123.5625 C473.20886673 120.86452072 463.57044457 119.6765195 453.3125 119.375 C451.66991211 119.31699219 451.66991211 119.31699219 449.99414062 119.2578125 C447.329582 119.16472748 444.66500978 119.07890148 442 119 C442 118.67 442 118.34 442 118 C442.83192871 117.970271 442.83192871 117.970271 443.68066406 117.93994141 C446.20423693 117.84442349 448.72701224 117.73485433 451.25 117.625 C452.12269531 117.5940625 452.99539063 117.563125 453.89453125 117.53125 C454.73886719 117.49257813 455.58320312 117.45390625 456.453125 117.4140625 C457.61569824 117.36693115 457.61569824 117.36693115 458.80175781 117.31884766 C461.26360896 116.9617644 462.89495483 116.31833968 465 115 C466.02304948 113.34738161 467.02616054 111.68208635 468 110 C468.66 110 469.32 110 470 110 C470.36644993 96.34681639 470.67601995 82.69309387 470.9395752 69.03753662 C470.99806358 66.09734325 471.06242634 63.15732952 471.12792969 60.21728516 C471.22496057 55.73590965 471.29402337 51.2548957 471.34204102 46.7727356 C471.36385922 45.10273396 471.39449458 43.43282219 471.43432617 41.76315308 C472.10789688 30.51296562 472.10789688 30.51296562 467.60821658 20.65242803 C462.37219288 15.27246091 457.69625408 13.57154512 450.15794086 13.37752342 C446.89368983 13.33429884 443.63183875 13.35549908 440.36750793 13.38095093 C438.54924864 13.3767862 436.73099329 13.37041967 434.91274852 13.36204493 C429.92360866 13.34537047 424.93496704 13.35971898 419.94585478 13.37910604 C414.56273394 13.39454375 409.17967726 13.38108329 403.79655457 13.37101746 C394.47124532 13.35740347 385.14608299 13.36170303 375.8207798 13.37784958 C362.33254307 13.40091593 348.8444536 13.39360966 335.35621198 13.37831838 C313.46508254 13.3540473 291.57400021 13.34984149 269.68286133 13.36035156 C268.37282639 13.36097539 267.06279146 13.36159921 265.71305849 13.36224194 C263.0615643 13.36351327 260.41007011 13.36478751 257.75857593 13.36606465 C256.4439435 13.36669703 255.12931108 13.36732941 253.77484131 13.36798096 C252.4590134 13.3686191 251.14318549 13.36925725 249.78748401 13.36991473 C235.16699807 13.376723 220.54651279 13.37871173 205.92602539 13.37890625 C203.96200151 13.3789405 203.96200151 13.3789405 201.95830039 13.37897544 C180.14538477 13.37890626 158.33248706 13.36689116 136.51958007 13.34794676 C123.06060746 13.33697029 109.60172848 13.33783359 96.14276042 13.3538865 C86.92739293 13.36433379 77.71206317 13.36459519 68.49669317 13.35676835 C63.17559824 13.35267127 57.85462317 13.35365818 52.53354263 13.36770058 C47.66630366 13.38048982 42.79926789 13.37965229 37.93202826 13.36782809 C36.16771925 13.36602046 34.40339629 13.36934411 32.63910864 13.37821047 C30.24733272 13.38952447 27.85629344 13.38249873 25.46453571 13.3707943 C24.42880049 13.3823532 24.42880049 13.3823532 23.37214133 13.39414561 C19.09237659 13.34803546 16.40917706 12.60842057 13 10 C12.30251417 8.68252676 11.63040043 7.35085807 11 6 C10.01 5.67 9.02 5.34 8 5 C8 4.01 8 3.02 8 2 C5.36 1.67 2.72 1.34 0 1 C0 0.67 0 0.34 0 0 Z " fill="#C9D1FB" transform="translate(253,391)"/>
<path d="M0 0 C28.0603858 12.70500227 49.44913468 35.84227374 60.3984375 64.68359375 C64.88726883 77.37494631 66.44516732 89.42671337 66.4375 102.875 C66.43790283 103.60032928 66.43830566 104.32565857 66.4387207 105.07296753 C66.37751814 124.26128854 62.62667624 140.38785588 53 157 C52.6380957 157.65274902 52.27619141 158.30549805 51.90332031 158.97802734 C36.0552539 187.45871112 10.09531462 206.38661525 -20.94995117 215.30126953 C-22.24442371 215.66745393 -23.53942649 216.03177491 -24.83520508 216.39331055 C-26.66201227 216.90527805 -28.47362949 217.47099558 -30.28076172 218.04858398 C-34.15257699 219.03903062 -37.49755732 219.28896701 -41.48828125 219.3359375 C-42.18464188 219.34431641 -42.8810025 219.35269531 -43.59846497 219.36132812 C-45.83671063 219.38076364 -48.07418444 219.38092828 -50.3125 219.375 C-51.07632996 219.37445618 -51.84015991 219.37391235 -52.62713623 219.37335205 C-64.1843909 219.33540367 -74.96617451 218.71349558 -86 215 C-86.6811084 214.78037598 -87.3622168 214.56075195 -88.06396484 214.33447266 C-103.05693732 209.41800245 -115.87437736 202.02219831 -128 192 C-128.886875 191.2678125 -129.77375 190.535625 -130.6875 189.78125 C-149.36036723 173.67590202 -163.15240169 151.23799157 -168 127 C-168 125.68 -168 124.36 -168 123 C-167.34 123 -166.68 123 -166 123 C-165.56171875 124.0415625 -165.1234375 125.083125 -164.671875 126.15625 C-159.79773429 137.32265426 -153.68529172 146.58153492 -146 156 C-145.32195313 156.86238281 -144.64390625 157.72476563 -143.9453125 158.61328125 C-126.92108577 179.1811775 -99.39866494 191.28862967 -73.17285156 193.84326172 C-39.9099172 196.24267788 -11.33341132 187.86815054 14 166 C14.67160156 165.43023438 15.34320312 164.86046875 16.03515625 164.2734375 C30.97777363 150.49655622 44.83247453 126.5459101 46 106 C47.21025424 73.53641809 42.15150168 44.2840605 19.57617188 19.43261719 C13.99402955 13.48294137 8.20539187 8.05065165 1.546875 3.3046875 C1.03640625 2.87414062 0.5259375 2.44359375 0 2 C0 1.34 0 0.68 0 0 Z " fill="#039976" transform="translate(758,537)"/>
<path d="M0 0 C4.90081868 2.91567694 8.25916222 7.13655029 10.5 12.375 C10.8359375 14.48828125 10.8359375 14.48828125 10.875 16.6875 C10.90335938 17.40550781 10.93171875 18.12351562 10.9609375 18.86328125 C9.80260222 25.17522686 5.44532108 29.88815383 1.125 34.375 C0.34443237 35.20294067 0.34443237 35.20294067 -0.4519043 36.04760742 C-1.56187889 37.22476338 -2.6744916 38.39943662 -3.78955078 39.57177734 C-6.0694688 41.97535634 -8.32499628 44.40117775 -10.58129883 46.8269043 C-14.82058835 51.38304947 -19.07545551 55.92461247 -23.3359375 60.4609375 C-24.61981057 61.82810725 -25.90366482 63.19529467 -27.1875 64.5625 C-28.12783081 65.56361816 -28.12783081 65.56361816 -29.0871582 66.58496094 C-32.92274067 70.67450553 -36.72465232 74.79234391 -40.5 78.9375 C-43.91501828 82.68185981 -47.3891359 86.32060597 -51.0234375 89.8515625 C-52.49003007 91.36471356 -53.73025458 92.94565928 -55 94.625 C-58.41312018 98.3794322 -61.64269352 100.01023747 -66.703125 100.65625 C-73.05991534 100.91571083 -77.9070359 99.7326679 -82.65234375 95.41796875 C-84.12335312 93.94193029 -85.57335856 92.44449862 -86.99609375 90.921875 C-89.67251196 88.19952762 -92.49374654 85.73152698 -95.37915039 83.23535156 C-99.52522727 79.59852575 -103.49665375 75.77270104 -107.5 71.98046875 C-112.82355281 66.9584453 -118.24011316 62.05961269 -123.890625 57.40625 C-129.03537943 53.16939341 -132.79421492 49.50446181 -133.9453125 42.76953125 C-134.33907165 36.56354461 -133.30739262 32.79380945 -129.21875 28.09765625 C-121.90105309 20.76332821 -121.90105309 20.76332821 -117.5 20.375 C-116.283125 20.25125 -115.06625 20.1275 -113.8125 20 C-106.97090404 20.11445049 -101.61419863 24.04141479 -96.9375 28.75 C-96.37417969 29.34941406 -95.81085937 29.94882812 -95.23046875 30.56640625 C-92.8816375 33.02127954 -90.32666414 35.19095945 -87.75390625 37.40625 C-84.0801221 40.61523997 -80.50577783 43.93385342 -76.91796875 47.23828125 C-74.4971754 49.4746055 -74.4971754 49.4746055 -71.5 51.375 C-68.22419602 51.05561411 -66.67794737 49.893989 -64.51171875 47.49609375 C-63.70553101 46.61546265 -63.70553101 46.61546265 -62.88305664 45.71704102 C-62.32352295 45.08854248 -61.76398926 44.46004395 -61.1875 43.8125 C-60.60282959 43.16917725 -60.01815918 42.52585449 -59.41577148 41.86303711 C-56.05576726 38.15462269 -52.75431637 34.39732688 -49.484375 30.609375 C-46.05922414 26.75270907 -42.51785953 23.00347868 -38.98706055 19.24365234 C-35.98695991 16.04753715 -33.00361066 12.84005751 -30.06640625 9.5859375 C-29.25852661 8.69491333 -29.25852661 8.69491333 -28.43432617 7.78588867 C-27.42052421 6.66542084 -26.41129937 5.54078857 -25.4074707 4.41137695 C-18.7904085 -2.87801332 -9.10834797 -4.17176243 0 0 Z " fill="#FBFCFC" transform="translate(759.5,586.625)"/>
<path d="M0 0 C1.155 0.020625 2.31 0.04125 3.5 0.0625 C12.85143612 2.56734896 20.05994035 8.80878999 25 17 C26.99699605 21.05125364 28 24.41907221 28 29 C27.28344238 29.01458252 26.56688477 29.02916504 25.82861328 29.04418945 C22.59352017 29.11849 19.35947981 29.21520861 16.125 29.3125 C14.99707031 29.33505859 13.86914062 29.35761719 12.70703125 29.38085938 C11.63066406 29.41630859 10.55429687 29.45175781 9.4453125 29.48828125 C7.95281982 29.52755737 7.95281982 29.52755737 6.43017578 29.56762695 C5.62821777 29.71031006 4.82625977 29.85299316 4 30 C1.87894048 33.18158928 1.75265794 33.94819135 1.76049805 37.58813477 C1.75676682 38.51662735 1.75303558 39.44511993 1.74919128 40.40174866 C1.75332535 41.40483566 1.75745941 42.40792267 1.76171875 43.44140625 C1.74628873 45.573574 1.72998435 47.70573557 1.71289062 49.83789062 C1.69649355 53.19292861 1.68746823 56.54751346 1.69458008 59.90258789 C1.69721694 63.14521064 1.66894596 66.38646689 1.63671875 69.62890625 C1.64692551 70.61782364 1.65713226 71.60674103 1.66764832 72.62562561 C1.56211871 80.23209788 -0.29566442 86.95742359 -5.54878235 92.69020081 C-10.95716046 97.39888613 -15.95028731 97.34238634 -22.828125 97.28125 C-28.17083116 96.80751251 -30.63801937 94.43980809 -34.1875 90.6875 C-38.71828439 83.96944039 -39.45017603 78.6198772 -39.3984375 70.67578125 C-39.40130768 69.6931279 -39.40417786 68.71047455 -39.40713501 67.69804382 C-39.4091696 65.62461774 -39.4036822 63.55117219 -39.39111328 61.4777832 C-39.37513774 58.33955783 -39.39093835 55.20263726 -39.41015625 52.06445312 C-39.42590445 36.7077402 -38.92010256 22.22153726 -28 10.375 C-19.7250452 2.54770669 -11.36585682 -1.16015125 0 0 Z " fill="#FAC359" transform="translate(390,237)"/>
<path d="M0 0 C9.51470157 -0.53173719 16.84591405 1.94601695 24.1640625 8.109375 C29.56798842 13.77007494 34.03515625 21.40038882 34.03515625 29.31640625 C21.66015625 29.81140625 21.66015625 29.81140625 9.03515625 30.31640625 C7.34770675 34.53503001 6.78792129 36.12933425 6.81152344 40.34692383 C6.8110199 41.32176224 6.81051636 42.29660065 6.80999756 43.30097961 C6.81726868 44.34376572 6.82453979 45.38655182 6.83203125 46.4609375 C6.82148222 48.68685481 6.80972571 50.91276666 6.796875 53.13867188 C6.786568 56.63446223 6.78515958 60.12948848 6.80517578 63.62524414 C6.81998271 67.00862812 6.7974381 70.39017149 6.76953125 73.7734375 C6.78489929 74.81015091 6.80026733 75.84686432 6.81610107 76.91499329 C6.72130314 84.0312089 5.12799345 88.27370766 0.03515625 93.31640625 C-5.01344796 97.49122091 -9.43002606 98.74491889 -15.96484375 98.31640625 C-22.49014743 96.94332111 -26.26990778 93.78820633 -29.96484375 88.31640625 C-31.85928492 85.1242722 -32.22099629 82.76020211 -32.23950195 79.06396484 C-32.24903397 78.01542328 -32.25856598 76.96688171 -32.26838684 75.88656616 C-32.26747543 74.75739777 -32.26656403 73.62822937 -32.265625 72.46484375 C-32.26991013 71.29563385 -32.27419525 70.12642395 -32.27861023 68.92178345 C-32.28435453 66.44542081 -32.28485306 63.96904129 -32.28051758 61.49267578 C-32.27737313 57.72658954 -32.30076268 53.96130073 -32.32617188 50.1953125 C-32.32844657 47.78515724 -32.32914757 45.37499987 -32.328125 42.96484375 C-32.33733475 41.84782074 -32.34654449 40.73079773 -32.35603333 39.57992554 C-32.28479357 27.37126305 -29.21708807 18.44833144 -20.96484375 9.31640625 C-14.36956856 3.48413437 -8.59514288 0.91726821 0 0 Z " fill="#FDC35A" transform="translate(627.96484375,236.68359375)"/>
<path d="M0 0 C6.50253395 4.39730744 11.98753829 9.6762907 15 17 C16.03285931 24.34190829 15.94931905 31.3996529 11.81640625 37.72265625 C8.62948113 41.71830646 5.2036333 45.47124518 1.68359375 49.171875 C-0.37915073 51.34571343 -2.36731097 53.53568841 -4.3125 55.8125 C-8.28840277 60.39861327 -12.4576919 64.80338455 -16.60693359 69.23193359 C-20.24161018 73.11218347 -23.85337721 77.01050148 -27.4375 80.9375 C-32.43288018 86.405117 -37.49103342 91.81181545 -42.58032227 97.19213867 C-45.33292233 100.1106218 -48.06289089 103.02654897 -50.640625 106.1015625 C-56.24547192 112.74506986 -60.62171842 116.30038614 -69.36328125 117.4375 C-77.8115456 117.87307109 -82.7314515 116.60237871 -89 111 C-89.86367188 110.24589844 -90.72734375 109.49179687 -91.6171875 108.71484375 C-94.79491556 105.86005553 -97.90019939 102.93870594 -101 100 C-102.37450604 98.70520459 -103.74953319 97.41096222 -105.125 96.1171875 C-107.31865145 94.05324161 -109.51184633 91.98882843 -111.703125 89.92236328 C-119.34038428 82.72294149 -127.02582841 75.58585405 -134.9375 68.6875 C-140.79252184 63.49130094 -144.62565198 59.6419154 -145.2734375 51.609375 C-145.47905427 43.79593771 -145.47545541 38.02034296 -140 32 C-139.40703125 31.30261719 -138.8140625 30.60523438 -138.203125 29.88671875 C-132.52629475 23.67626646 -126.59645763 19.92736564 -118.0625 19.5 C-106.0928292 20.14551383 -99.14846573 27.06567099 -91 35 C-88.95825936 36.8365231 -86.8920014 38.6369094 -84.80859375 40.42578125 C-83.54870629 41.52240035 -82.31315972 42.64735049 -81.09765625 43.79296875 C-80.48792969 44.35628906 -79.87820313 44.91960938 -79.25 45.5 C-78.71890625 46.0053125 -78.1878125 46.510625 -77.640625 47.03125 C-76.04211671 48.19998446 -76.04211671 48.19998446 -74.11157227 47.76782227 C-71.54995841 46.83635324 -70.41092633 45.68748983 -68.57421875 43.68359375 C-67.94193359 43.00103516 -67.30964844 42.31847656 -66.65820312 41.61523438 C-65.68270508 40.53725586 -65.68270508 40.53725586 -64.6875 39.4375 C-64.04876953 38.74591797 -63.41003906 38.05433594 -62.75195312 37.34179688 C-59.62408418 33.94138818 -56.55104744 30.49817737 -53.51953125 27.01171875 C-49.77267777 22.71110664 -45.9038156 18.53308711 -42 14.375 C-41.32710937 13.65054688 -40.65421875 12.92609375 -39.9609375 12.1796875 C-29.46746452 0.99745375 -15.73138691 -8.15396494 0 0 Z M-34.625 17.9375 C-35.3264917 18.69313232 -36.0279834 19.44876465 -36.75073242 20.22729492 C-38.83948601 22.47970441 -40.92017774 24.73934577 -43 27 C-44.10749035 28.19585228 -45.21551178 29.39121309 -46.32421875 30.5859375 C-48.75158483 33.20442557 -51.17067145 35.83035166 -53.58544922 38.46044922 C-55.0457532 40.04979629 -56.5090231 41.63637496 -57.97265625 43.22265625 C-62.74564762 48.40278839 -67.46611978 53.60835865 -72 59 C-75.36695916 58.40670323 -77.12243105 57.30023359 -79.625 55 C-80.32109375 54.36835937 -81.0171875 53.73671875 -81.734375 53.0859375 C-82.48203125 52.39757812 -83.2296875 51.70921875 -84 51 C-85.62398495 49.5405364 -87.2490228 48.08224372 -88.875 46.625 C-91.45642776 44.30843542 -94.01967572 41.98144257 -96.54296875 39.6015625 C-105.53989103 31.01004103 -105.53989103 31.01004103 -117.125 27.5 C-126.38302563 28.69458395 -130.39040454 32.78961755 -136 40 C-137.25723967 42.51447934 -137.23887014 44.37793937 -137.3125 47.1875 C-137.34988281 48.10917969 -137.38726563 49.03085937 -137.42578125 49.98046875 C-136.43326477 57.01914065 -131.98896793 61.40488507 -126.875 65.875 C-126.29951416 66.3918335 -125.72402832 66.90866699 -125.13110352 67.44116211 C-123.42768082 68.96878421 -121.71432849 70.48464233 -120 72 C-118.31134004 73.51954527 -116.62372419 75.04025223 -114.9375 76.5625 C-114.13828125 77.27921875 -113.3390625 77.9959375 -112.515625 78.734375 C-109.7265438 81.24628043 -106.95405544 83.77585471 -104.1875 86.3125 C-103.69306396 86.76568604 -103.19862793 87.21887207 -102.68920898 87.68579102 C-99.9473592 90.20234357 -97.21407793 92.72778458 -94.48828125 95.26171875 C-93.90602783 95.80207764 -93.32377441 96.34243652 -92.72387695 96.89916992 C-91.60236695 97.94062879 -90.48233093 98.98367796 -89.36401367 100.02856445 C-83.02766991 105.91024688 -79.05634862 108.47656761 -70.34765625 108.25 C-60.72562 107.2253572 -55.30928982 99.27838738 -49.34960938 92.5078125 C-47.69690841 90.66137959 -45.96330886 88.91531403 -44.1875 87.1875 C-41.9206676 84.96942463 -39.80819329 82.67203728 -37.73828125 80.26953125 C-34.24814177 76.25846174 -30.64934431 72.36603487 -27 68.5 C-26.35844971 67.81711914 -25.71689941 67.13423828 -25.0559082 66.43066406 C-21.72699725 62.88814833 -18.3890045 59.35446613 -15.04296875 55.828125 C0.64982499 41.28596261 0.64982499 41.28596261 7.33984375 22.41015625 C6.63658816 17.42269997 3.93871529 13.70963296 0.21484375 10.42578125 C-4.67366126 6.8035132 -8.33288571 5.81854114 -14.3125 5.6875 C-15.42238281 5.65011719 -16.53226563 5.61273437 -17.67578125 5.57421875 C-25.20393342 6.53845916 -29.75613333 12.62574138 -34.625 17.9375 Z " fill="#168595" transform="translate(763,579)"/>
<path d="M0 0 C0.91910156 -0.00386719 1.83820313 -0.00773438 2.78515625 -0.01171875 C4.12126953 -0.00978516 4.12126953 -0.00978516 5.484375 -0.0078125 C6.28069336 -0.00668457 7.07701172 -0.00555664 7.89746094 -0.00439453 C10.4250751 0.13462949 12.78210285 0.57396398 15.25 1.125 C15.25 1.785 15.25 2.445 15.25 3.125 C16.3225 3.3725 17.395 3.62 18.5 3.875 C22.27749425 5.13416475 23.91922326 5.95514363 26.25 9.125 C26.25 10.445 26.25 11.765 26.25 13.125 C22.79219351 13.90285112 19.57229826 14.25610027 16.03125 14.30078125 C-15.15855691 14.94399906 -40.59482594 21.61729444 -64.75 42.125 C-65.65878906 42.88683594 -66.56757812 43.64867187 -67.50390625 44.43359375 C-85.39230849 59.98331754 -97.51366803 82.39884403 -99.75 106.125 C-99.97414161 110.4179053 -100.04606747 114.70163035 -100.0625 119 C-100.06797852 120.04559082 -100.07345703 121.09118164 -100.07910156 122.16845703 C-99.98335792 132.55994361 -97.74670916 141.71229521 -94.4296875 151.48632812 C-93.22974907 155.14685459 -92.46627649 158.264867 -92.75 162.125 C-100.96151459 158.79019276 -104.95814946 148.15202183 -108.68359375 140.69140625 C-109.75 138.125 -109.75 138.125 -109.75 135.125 C-110.41 135.125 -111.07 135.125 -111.75 135.125 C-113.8758831 128.19057181 -114.06091076 121.72443274 -114 114.5 C-113.99250732 113.34008545 -113.98501465 112.1801709 -113.97729492 110.98510742 C-113.60777046 81.54907815 -102.06486246 55.80813018 -81.625 34.625 C-80.35455481 33.43525932 -79.06247503 32.26820741 -77.75 31.125 C-76.65171875 30.16787109 -76.65171875 30.16787109 -75.53125 29.19140625 C-53.81303555 11.10464649 -28.41111423 -0.12158822 0 0 Z " fill="#D2F999" transform="translate(701.75,524.875)"/>
<path d="M0 0 C6.19507116 4.68046736 11.08051161 11.12565565 12.30273438 18.93408203 C13.30367312 28.8126128 12.3602087 36.99537837 6 45 C0.91768149 50.78819608 -4.76364815 53.60930472 -12 56 C-12.99 56.33 -13.98 56.66 -15 57 C-25.59119939 57.98335337 -33.57202865 56.12516691 -41.8125 49.3125 C-47.52022338 43.90784158 -51.54417791 37.48739668 -52.203125 29.5546875 C-52.38562878 19.12155469 -50.31684837 10.69758934 -43 3 C-30.61415453 -8.52353977 -14.00677148 -9.40037789 0 0 Z " fill="#151E3F" transform="translate(411,452)"/>
<path d="M0 0 C7.58883885 4.02619025 15.50655638 10.43817864 18.5625 18.765625 C20.63515249 29.35095737 19.50089795 39.18749958 13.5625 48.17578125 C8.65021741 54.44602658 1.73271352 59.010541 -6.1015625 60.6484375 C-16.71924425 61.93629647 -25.04086634 60.52838632 -33.703125 54.05859375 C-37.3135493 50.82272027 -39.69027632 47.23068199 -42 43 C-42.61875 41.948125 -43.2375 40.89625 -43.875 39.8125 C-46.13739138 32.145507 -46.37448051 23.964031 -42.9375 16.625 C-42.00925814 15.05214574 -41.0299835 13.50819013 -40 12 C-39.27296875 10.92105469 -39.27296875 10.92105469 -38.53125 9.8203125 C-29.18071 -2.3262223 -14.00644624 -5.13569696 0 0 Z " fill="#151E3F" transform="translate(608,448)"/>
<path d="M0 0 C1.97615339 2.96423008 3.55320397 5.96112256 5.1875 9.125 C13.57502054 24.6894711 25.41391505 34.79548603 42.4817276 40.07749748 C47.89971932 41.37923471 53.2748962 41.27015752 58.81970215 41.24050903 C60.58179921 41.24307231 60.58179921 41.24307231 62.37949419 41.24568737 C65.62232972 41.24840247 68.86500359 41.24218846 72.10782003 41.23213124 C75.61146111 41.22346639 79.11509512 41.22641905 82.6187439 41.22793579 C88.68313873 41.22898273 94.74749041 41.22272616 100.81187439 41.21146011 C109.57986855 41.19518209 118.34784192 41.18999475 127.11584955 41.18748413 C141.34254433 41.18311064 155.56921613 41.16981092 169.79589844 41.15087891 C183.61295456 41.13251115 197.43000444 41.11835903 211.24707031 41.10986328 C212.09924926 41.10933783 212.95142821 41.10881239 213.82943076 41.10827102 C218.10471002 41.10566088 222.37998933 41.10313348 226.65526867 41.10064721 C262.10352883 41.07992548 297.55176229 41.04470937 333 41 C334.31626692 44.61973402 335 47.09567131 335 51 C298.65920307 51.09163715 262.31842647 51.16208012 225.97753771 51.20426132 C221.68318576 51.2092639 217.38883403 51.21444121 213.09448242 51.21972656 C212.23958602 51.2207758 211.38468961 51.22182505 210.50388726 51.22290608 C196.6775008 51.24029194 182.85118114 51.27181956 169.02483425 51.30861118 C154.82842986 51.34607131 140.63206035 51.36824656 126.43560857 51.37635398 C117.68183089 51.38183125 108.92824206 51.39910507 100.17452254 51.43166587 C94.16459018 51.45287644 88.15475486 51.45918531 82.14478783 51.45400551 C78.68186729 51.45145384 75.21927582 51.45525169 71.75641441 51.4768219 C67.99033022 51.49683329 64.22504268 51.49189758 60.4589386 51.48101807 C59.38010338 51.49266943 58.30126815 51.5043208 57.18974096 51.51632524 C39.21500119 51.37674667 21.9885815 42.56863571 9.16015625 30.23046875 C8.77730469 29.82441406 8.39445313 29.41835938 8 29 C7.34 29.33 6.68 29.66 6 30 C5.65066406 29.00097656 5.30132812 28.00195312 4.94140625 26.97265625 C4.48192081 25.66921795 4.02227721 24.3658354 3.5625 23.0625 C3.33240234 22.40314453 3.10230469 21.74378906 2.86523438 21.06445312 C1.88035408 17.77671378 1.88035408 17.77671378 0 15 C-0.07313567 12.46950598 -0.09247527 9.96695163 -0.0625 7.4375 C-0.05798828 6.72658203 -0.05347656 6.01566406 -0.04882812 5.28320312 C-0.03700864 3.52209987 -0.01907263 1.76103964 0 0 Z " fill="#5B60B3" transform="translate(247,637)"/>
<path d="M0 0 C58.41 0 116.82 0 177 0 C177 5.28 177 10.56 177 16 C118.59 16 60.18 16 0 16 C0 10.72 0 5.44 0 0 Z " fill="#E3DCFB" transform="translate(404,281)"/>
<path d="M0 0 C1.22339081 0.00212242 1.22339081 0.00212242 2.47149658 0.00428772 C5.06957712 0.00987322 7.66757063 0.02242304 10.265625 0.03515625 C12.02994667 0.04017313 13.79426969 0.04473571 15.55859375 0.04882812 C19.87766445 0.05898586 24.19654762 0.07856406 28.515625 0.09765625 C28.515625 5.37765625 28.515625 10.65765625 28.515625 16.09765625 C26.61039062 16.1234375 24.70515625 16.14921875 22.7421875 16.17578125 C20.20831129 16.23208961 17.67445801 16.28943631 15.140625 16.34765625 C13.88894531 16.36183594 12.63726562 16.37601562 11.34765625 16.390625 C-1.82474394 16.73545223 -11.45188681 20.81821383 -21.234375 29.68359375 C-33.86882478 43.17350106 -33.81037746 59.94931907 -34.109375 77.22265625 C-34.14762383 79.05600674 -34.18667938 80.88934059 -34.2265625 82.72265625 C-34.32330548 87.18089537 -34.4034632 91.63899034 -34.484375 96.09765625 C-41.414375 96.09765625 -48.344375 96.09765625 -55.484375 96.09765625 C-55.57685902 89.65974096 -55.65629897 83.22418637 -55.70410156 76.78613281 C-55.72405558 74.60213352 -55.75122871 72.41818652 -55.78613281 70.234375 C-56.10115494 49.99883584 -54.10607678 32.59788971 -39.61328125 17.03515625 C-28.42464595 6.85247165 -15.27606718 -0.09996916 0 0 Z " fill="#E4DDFA" transform="translate(308.484375,280.90234375)"/>
<path d="M0 0 C3.87108793 1.93554397 7.44246721 4.14679073 11.0625 6.5 C11.68705078 6.90347656 12.31160156 7.30695313 12.95507812 7.72265625 C15.64853427 9.46463535 18.33102608 11.22068405 21 13 C21.36914349 15.18264961 21.36914349 15.18264961 21.36076355 17.94802856 C21.36488754 18.994133 21.36901154 20.04023743 21.3732605 21.11804199 C21.36247467 22.27034302 21.35168884 23.42264404 21.34057617 24.60986328 C21.34123329 26.42446548 21.34123329 26.42446548 21.34190369 28.27572632 C21.34016858 31.59803394 21.32509732 34.91978609 21.30418181 38.24199533 C21.28546021 41.71200336 21.28366815 45.18201835 21.28010559 48.65206909 C21.27077179 55.22527769 21.24614009 61.79833706 21.21605712 68.37147987 C21.18255452 75.85382957 21.16603755 83.33618631 21.15097082 90.81859231 C21.11959158 106.21248138 21.06680532 121.60622146 21 137 C16.85592495 136.10508318 13.55003835 134.14576525 9.9375 132 C5.14445106 129.13986215 5.14445106 129.13986215 0 127 C0 85.09 0 43.18 0 0 Z " fill="#AEBDF6" transform="translate(758,394)"/>
<path d="M0 0 C0.99 0.33 1.98 0.66 3 1 C2.16597656 1.73863281 1.33195313 2.47726562 0.47265625 3.23828125 C-23.55436986 24.78382762 -40.46029273 54.43648474 -43 87 C-43.83239433 102.3274515 -43.31926798 116.9122325 -38.8984375 131.6796875 C-38 135 -38 135 -38 139 C-52.52 139 -67.04 139 -82 139 C-81.67 138.01 -81.34 137.02 -81 136 C-78.67241793 134.90466726 -76.39393062 133.92225196 -74 133 C-69.46133403 131.22013099 -67.17931309 129.5330057 -64.82739258 125.20751953 C-63.18028094 120.81295376 -63.45173311 116.20103376 -63.4375 111.5625 C-62.59308431 78.07322568 -49.00936008 47.4907604 -26.0078125 23.12890625 C-24.10084009 21.10692189 -22.33509165 19.0144769 -20.5625 16.875 C-16.55470368 12.27207847 -11.85673306 8.66398802 -7 5 C-6.31035156 4.45601562 -5.62070312 3.91203125 -4.91015625 3.3515625 C-3.0625 1.9375 -3.0625 1.9375 0 0 Z " fill="#CED6FA" transform="translate(617,540)"/>
<path d="M0 0 C3.99228272 0.63876524 5.40873475 1.49008445 8.125 4.5 C8.98966899 6.722832 9.65223373 8.96714078 10.328125 11.25390625 C12.2336704 16.62492883 16.14690528 20.08029583 21.1875 22.6875 C30.70540936 26.67888134 42.40559736 26.96400855 52.125 23.5 C60.20553871 19.98779016 64.40731803 15.42519366 68.125 7.5 C68.4653125 6.61441406 68.805625 5.72882812 69.15625 4.81640625 C70.125 2.5 70.125 2.5 72.125 0.5 C75.62883136 0.04297852 77.49749097 0.12993057 80.5625 1.9375 C82.58627078 5.25648409 82.4848359 7.16269385 81.8515625 10.9375 C78.94429248 21.19109749 72.63191229 28.34642099 63.78125 33.99609375 C53.95941676 39.36940187 43.21431408 41.19634625 32.125 40.5 C31.41730469 40.4690625 30.70960938 40.438125 29.98046875 40.40625 C19.48306407 39.57805239 9.26869036 33.23062455 2.3125 25.5625 C-2.85163452 19.22415392 -6.65991739 13.01992144 -5.875 4.5 C-4.08609132 1.41585773 -3.58573289 0.62360572 0 0 Z " fill="#1A2248" transform="translate(454.875,507.5)"/>
<path d="M0 0 C3 1 3 1 4.82421875 4.08984375 C5.45565368 5.3673363 6.07636944 6.6501707 6.6875 7.9375 C7.00783203 8.58396484 7.32816406 9.23042969 7.65820312 9.89648438 C10 14.70490738 10 14.70490738 10 17 C10.99 17.33 11.98 17.66 13 18 C13 18.66 13 19.32 13 20 C15.36965361 21.22285828 17.7553978 22.33112065 20.19921875 23.40234375 C21.35035156 23.90894531 22.50148437 24.41554688 23.6875 24.9375 C24.84636719 25.44152344 26.00523437 25.94554687 27.19921875 26.46484375 C30 28 30 28 31 31 C23.60787992 35.7467167 23.60787992 35.7467167 20 37.25 C10.61686204 42.72349714 6.31999977 52.5095005 2 62 C-1.22435732 59.85042846 -1.73659162 58.56253951 -3.10546875 55.078125 C-4.48228403 51.8795847 -6.25864131 48.9225056 -8.01171875 45.91796875 C-9 44 -9 44 -9 42 C-9.50015625 41.75507813 -10.0003125 41.51015625 -10.515625 41.2578125 C-13.9554311 39.51627545 -17.35047882 37.69364744 -20.75 35.875 C-21.44738281 35.50246094 -22.14476562 35.12992187 -22.86328125 34.74609375 C-24.57577295 33.83120092 -26.28792068 32.91566431 -28 32 C-27.93359375 30.234375 -27.93359375 30.234375 -27 28 C-24.67876455 26.55619742 -22.52475638 25.38717688 -20.0625 24.25 C-19.41603516 23.93417969 -18.76957031 23.61835938 -18.10351562 23.29296875 C-13.32401583 21 -13.32401583 21 -11 21 C-10.57195068 20.13713379 -10.57195068 20.13713379 -10.13525391 19.25683594 C-9.06053344 17.12033787 -7.95637371 15.00344757 -6.8359375 12.890625 C-6.23652344 11.75947266 -6.23652344 11.75947266 -5.625 10.60546875 C-5.2125 9.82816406 -4.8 9.05085938 -4.375 8.25 C-3.95476562 7.45722656 -3.53453125 6.66445313 -3.1015625 5.84765625 C-2.06812448 3.89821635 -1.03425699 1.94900549 0 0 Z " fill="#FCFDFB" transform="translate(178,467)"/>
<path d="M0 0 C14.19969032 6.5199461 24.3993157 21.92378049 30 36 C30.52243286 37.23459961 30.52243286 37.23459961 31.05541992 38.49414062 C35.13048859 49.55301099 34.44370755 60.68913345 34.25 72.3125 C34.229897 74.42120693 34.21165298 76.52993244 34.1953125 78.63867188 C34.15163518 83.75958058 34.0828186 88.87958088 34 94 C33.42576797 93.67522675 32.85153595 93.35045349 32.25990295 93.01583862 C28.71890496 91.02820718 25.25953415 89.11241551 21.52905273 87.49658203 C17.82985313 85.52832079 15.02302926 83.69151527 13 80 C10.92144574 71.22279037 11.77715574 61.8161728 12.0625 52.875 C12.17091895 47.97663835 12.24461524 43.0790764 12.28515625 38.1796875 C12.29501053 37.01199326 12.30486481 35.84429901 12.3150177 34.64122009 C12.26005588 23.56247407 10.65543698 13.81943771 3.1875 5.1875 C2.58292969 4.60355469 1.97835937 4.01960938 1.35546875 3.41796875 C0 2 0 2 0 0 Z " fill="#3E39A4" transform="translate(745,299)"/>
<path d="M0 0 C4.61330671 2.52613743 9.78751009 6.41486393 12.17578125 11.19140625 C12.76684612 16.87472233 12.44821541 21.33917628 9.17578125 26.19140625 C3.80411603 31.7258492 -3.7844696 34.3928607 -11.38671875 34.69140625 C-19.34260792 34.32162549 -24.7481373 31.65552645 -30.38671875 26.06640625 C-33.7343685 21.98079763 -34.94030497 18.89709262 -34.48046875 13.6171875 C-32.97321401 8.045728 -29.29762459 4.0130359 -24.63671875 0.75390625 C-17.27127303 -3.33800804 -7.79789366 -2.95093965 0 0 Z " fill="#FDBFC0" transform="translate(354.82421875,509.80859375)"/>
<path d="M0 0 C93.72 0 187.44 0 284 0 C287.3 6.27 290.6 12.54 294 19 C297.22199771 23.64013543 297.22199771 23.64013543 300.6015625 28.1640625 C302 30 302 30 302 31 C209.27 31 116.54 31 21 31 C21 30.67 21 30.34 21 30 C104.49 29.67 187.98 29.34 274 29 C270.37 21.41 266.74 13.82 263 6 C262.67 4.68 262.34 3.36 262 2 C175.54 1.67 89.08 1.34 0 1 C0 0.67 0 0.34 0 0 Z " fill="#A1ADEB" transform="translate(299,688)"/>
<path d="M0 0 C4.42526424 0.62978144 8.11362995 2.31503339 12.0625 4.3125 C12.67416016 4.60833984 13.28582031 4.90417969 13.91601562 5.20898438 C19.33201744 7.91991285 22.33717476 10.67434951 25 16 C25.78930908 16.90806396 26.57861816 17.81612793 27.3918457 18.75170898 C38.07400652 31.49511579 35.57525445 49.97464827 35.3125 65.4375 C35.28737532 68.01885851 35.26456956 70.60024068 35.24414062 73.18164062 C35.18950291 79.45495034 35.10620976 85.72736244 35 92 C33.7934375 91.7215625 33.7934375 91.7215625 32.5625 91.4375 C31.2940625 91.2209375 31.2940625 91.2209375 30 91 C29.67 91.33 29.34 91.66 29 92 C26.34757889 92.09892061 23.72118327 92.13176434 21.06826687 92.12304783 C20.22292618 92.12420167 19.3775855 92.12535552 18.50662842 92.12654433 C15.63700377 92.12921864 12.76743377 92.12468218 9.89781189 92.12025452 C7.83454852 92.12069005 5.7712852 92.12156463 3.70802218 92.12284368 C-1.99051237 92.12509211 -7.68902831 92.12106264 -13.38756049 92.11606562 C-19.52188788 92.11176626 -25.65621413 92.11320718 -31.7905426 92.1139679 C-42.42826179 92.11449346 -53.06597425 92.11137802 -63.70369148 92.10573006 C-74.8644215 92.09981955 -86.02514909 92.09596543 -97.18588066 92.09487724 C-98.22553764 92.09477413 -98.22553764 92.09477413 -99.28619778 92.09466894 C-102.80591128 92.09433062 -106.32562478 92.09402923 -109.84533828 92.09374207 C-134.79638929 92.09163985 -159.74743711 92.08489747 -184.69848633 92.07543945 C-208.9429523 92.06625986 -233.1874174 92.05917388 -257.43188477 92.05493164 C-258.1787812 92.05480011 -258.92567763 92.05466859 -259.69520728 92.05453308 C-267.19562762 92.05321459 -274.69604796 92.05193877 -282.19646831 92.05069422 C-297.47663627 92.04815778 -312.75680417 92.04533653 -328.03697205 92.04234314 C-328.73957922 92.04220585 -329.44218639 92.04206856 -330.16608469 92.04192711 C-377.11072448 92.03272143 -424.0553624 92.0168549 -471 92 C-471 91.67 -471 91.34 -471 91 C-306.33 91 -141.66 91 28 91 C30.10298499 46.3203573 30.10298499 46.3203573 11.35546875 10.1953125 C8.27875922 7.32779881 5.05369107 4.74840804 1.65234375 2.27734375 C0.83443359 1.64505859 0.83443359 1.64505859 0 1 C0 0.67 0 0.34 0 0 Z " fill="#252A61" transform="translate(723,287)"/>
<path d="M0 0 C7.04851483 3.78212991 11.33676242 10.09500741 14.4375 17.375 C15 20 15 20 15 24 C14.28344238 24.01458252 13.56688477 24.02916504 12.82861328 24.04418945 C9.59352017 24.11849 6.35947981 24.21520861 3.125 24.3125 C1.99707031 24.33505859 0.86914062 24.35761719 -0.29296875 24.38085938 C-1.36933594 24.41630859 -2.44570313 24.45175781 -3.5546875 24.48828125 C-5.04718018 24.52755737 -5.04718018 24.52755737 -6.56982422 24.56762695 C-7.37178223 24.71031006 -8.17374023 24.85299316 -9 25 C-11.12105952 28.18158928 -11.24734206 28.94819135 -11.23950195 32.58813477 C-11.24323318 33.51662735 -11.24696442 34.44511993 -11.25080872 35.40174866 C-11.24667465 36.40483566 -11.24254059 37.40792267 -11.23828125 38.44140625 C-11.25371127 40.573574 -11.27001565 42.70573557 -11.28710938 44.83789062 C-11.30350645 48.19292861 -11.31253177 51.54751346 -11.30541992 54.90258789 C-11.30278306 58.14521064 -11.33105404 61.38646689 -11.36328125 64.62890625 C-11.35307449 65.61782364 -11.34286774 66.60674103 -11.33235168 67.62562561 C-11.43788129 75.23209788 -13.29566442 81.95742359 -18.54878235 87.69020081 C-23.95716046 92.39888613 -28.95028731 92.34238634 -35.828125 92.28125 C-41.24874337 91.80060404 -43.74025471 89.39971699 -47.25 85.5 C-50.12 81.4 -50.12 81.4 -51 79 C-50.67 78.01 -50.34 77.02 -50 76 C-50 76.66 -50 77.32 -50 78 C-49.278125 78.28875 -48.55625 78.5775 -47.8125 78.875 C-46.08022454 79.56791018 -44.36521888 80.30881244 -42.6875 81.125 C-38.29818293 82.55407998 -34.28463977 83.01741413 -30.03515625 81.125 C-25.5951458 78.27137806 -23.56545753 75.05494971 -22 70 C-21.62681591 67.02476501 -21.65201106 64.09643037 -21.69921875 61.1015625 C-21.69157684 59.38801697 -21.68308697 57.67447505 -21.67382812 55.9609375 C-21.67603451 53.29267948 -21.68749843 50.62515202 -21.71508789 47.95703125 C-21.85970635 29.95120251 -21.85970635 29.95120251 -16.56298828 23.54736328 C-12.04698021 19.07650119 -7.4433475 15.97336316 -1.85546875 13.015625 C-0.04252853 12.13611255 -0.04252853 12.13611255 1 11 C1.14475933 7.1638778 1.17661508 3.67692213 0 0 Z " fill="#F4813A" transform="translate(403,242)"/>
<path d="M0 0 C7.45246145 3.50704068 11.13348355 10.68380834 14.3359375 17.921875 C15 20 15 20 15 24 C2.625 24.495 2.625 24.495 -10 25 C-11.6874495 29.21862376 -12.24723496 30.812928 -12.22363281 35.03051758 C-12.22413635 36.00535599 -12.22463989 36.9801944 -12.22515869 37.98457336 C-12.21788757 39.02735947 -12.21061646 40.07014557 -12.203125 41.14453125 C-12.21367403 43.37044856 -12.22543054 45.59636041 -12.23828125 47.82226562 C-12.24858825 51.31805598 -12.24999667 54.81308223 -12.22998047 58.30883789 C-12.21517354 61.69222187 -12.23771815 65.07376524 -12.265625 68.45703125 C-12.25025696 69.49374466 -12.23488892 70.53045807 -12.21905518 71.59858704 C-12.31385311 78.71480265 -13.9071628 82.95730141 -19 88 C-24.04860421 92.17481466 -28.46518231 93.42851264 -35 93 C-41.52530368 91.62691486 -45.30506403 88.47180008 -49 83 C-50.2265625 80.96484375 -50.2265625 80.96484375 -51 79 C-50.67 78.01 -50.34 77.02 -50 76 C-49.46632813 76.433125 -48.93265625 76.86625 -48.3828125 77.3125 C-43.29725291 81.11347187 -39.6305579 82.83882456 -33.2265625 82.3828125 C-30.10348613 81.84586253 -28.35766491 81.14963566 -26 79 C-22.11553122 73.39466106 -21.44005707 69.36067281 -21.53125 62.62890625 C-21.52420044 61.74774643 -21.51715088 60.86658661 -21.5098877 59.95872498 C-21.48057528 56.21768641 -21.49699768 52.47717937 -21.50927734 48.73608398 C-21.51166979 45.99171387 -21.4906812 43.24817297 -21.46875 40.50390625 C-21.48006958 39.67033096 -21.49138916 38.83675568 -21.50305176 37.97792053 C-21.44608571 31.30341239 -19.62869269 26.18572519 -15.359375 21.01171875 C-12.25261299 18.45542671 -9.50204017 16.65555044 -5.6875 15.3125 C-1.79572703 14.34128533 -1.79572703 14.34128533 0 11 C0.24187651 8.25481679 0.24187651 8.25481679 0.125 5.3125 C0.10695313 4.31863281 0.08890625 3.32476562 0.0703125 2.30078125 C0.04710937 1.54152344 0.02390625 0.78226563 0 0 Z " fill="#F2803E" transform="translate(647,242)"/>
<path d="M0 0 C2.125 1.75 2.125 1.75 3 4 C2.84765625 5.95703125 2.84765625 5.95703125 2 8 C-0.07421875 9.52734375 -0.07421875 9.52734375 -2.6875 10.9375 C-11.3208869 15.85151052 -17.26064446 21.06129176 -20 31 C-20.19298639 33.66012021 -20.30046857 36.22436669 -20.30859375 38.8828125 C-20.33373368 40.39453544 -20.35913197 41.9062541 -20.38476562 43.41796875 C-20.41357222 45.77912463 -20.43762029 48.1402068 -20.45629883 50.50146484 C-20.47795069 52.79561091 -20.5173607 55.08894705 -20.55859375 57.3828125 C-20.55870956 58.08705353 -20.55882538 58.79129456 -20.5589447 59.51687622 C-20.6169754 62.39273653 -20.91810966 64.78989834 -21.96508789 67.47607422 C-25.29303992 69.96834495 -28.9876287 69.30282048 -33 69 C-33.07471359 63.48652029 -33.12886615 57.97334178 -33.16479492 52.45947266 C-33.17978865 50.58767557 -33.2001905 48.71591306 -33.22631836 46.84423828 C-33.43625279 31.40788324 -32.8902283 19.96828781 -22 8 C-15.14669399 2.2517389 -9.11730213 -1.23710605 0 0 Z " fill="#FBF9EE" transform="translate(629,238)"/>
<path d="M0 0 C0.78091106 5.03253796 0.78091106 5.03253796 0 8 C-2.00330603 9.88519728 -4.10555387 11.12400383 -6.48046875 12.5078125 C-13.01508267 16.37792493 -17.85645251 21.08419553 -21 28 C-21.92370518 32.35926039 -22.12260811 36.52398561 -22.140625 40.97265625 C-22.15996094 42.28427734 -22.17929687 43.59589844 -22.19921875 44.94726562 C-22.22823526 47.01014289 -22.25000222 49.07191461 -22.25048828 51.13500977 C-22.25382989 53.14355587 -22.29058859 55.15195814 -22.328125 57.16015625 C-22.3374707 58.35261963 -22.34681641 59.54508301 -22.35644531 60.77368164 C-23.17957392 64.90025392 -24.75533884 66.40541738 -28 69 C-30.6875 69.4375 -30.6875 69.4375 -33 69 C-35.56560015 66.43439985 -35.25795043 64.70982276 -35.30354309 61.21055603 C-35.30263168 60.41790848 -35.30172028 59.62526093 -35.30078125 58.80859375 C-35.30506638 57.989319 -35.3093515 57.17004425 -35.31376648 56.32594299 C-35.31951811 54.58668949 -35.32000393 52.84741192 -35.31567383 51.1081543 C-35.31254107 48.47206233 -35.33586597 45.83712272 -35.36132812 43.20117188 C-35.36360405 41.5078139 -35.36430326 39.81445294 -35.36328125 38.12109375 C-35.372491 37.34261581 -35.38170074 36.56413788 -35.39118958 35.7620697 C-35.30588722 25.44089891 -31.3714357 16.40637445 -24.375 8.875 C-17.08069198 1.9318994 -10.05485401 -0.96269879 0 0 Z " fill="#FCF9EE" transform="translate(387,238)"/>
<path d="M0 0 C6 1 6 1 8 3 C8.23047829 5.21388435 8.23047829 5.21388435 8.20254517 8.0239563 C8.19688034 9.08688904 8.19121552 10.14982178 8.18537903 11.2449646 C8.16883774 12.4159671 8.15229645 13.5869696 8.13525391 14.79345703 C8.12579239 16.02269897 8.11633087 17.25194092 8.10658264 18.51843262 C8.07862336 21.8943942 8.04170447 25.27003791 8.00085878 28.64585352 C7.960295 32.17186815 7.93110528 35.69797614 7.90072632 39.22409058 C7.8414425 45.90357132 7.77188017 52.58290419 7.69865549 59.26224506 C7.6158007 66.86546022 7.54435787 74.46876907 7.47388959 82.07210755 C7.32865476 97.71487782 7.1690367 113.35746775 7 129 C3.26512223 128.5020163 1.18762365 128.12508244 -2 126 C-1.34 126 -0.68 126 0 126 C0 84.42 0 42.84 0 0 Z " fill="#4F55AF" transform="translate(751,391)"/>
<path d="M0 0 C5.97730032 -0.12414511 11.95384052 -0.21459663 17.93212891 -0.2746582 C19.96318647 -0.29971104 21.9941547 -0.3337632 24.02490234 -0.37719727 C26.95432648 -0.43825687 29.88255279 -0.46630227 32.8125 -0.48828125 C34.16142334 -0.52699089 34.16142334 -0.52699089 35.53759766 -0.56648254 C41.69687721 -0.56918639 46.41013628 0.68571806 51 5 C52 8.3125 52 8.3125 52 11 C47.45181966 14.1331909 44.27156966 16.12982865 38.7121582 16.11352539 C37.85149246 16.11344986 36.99082672 16.11337433 36.1040802 16.11329651 C35.17899155 16.10813522 34.25390289 16.10297394 33.30078125 16.09765625 C32.35059616 16.0962413 31.40041107 16.09482635 30.4214325 16.09336853 C27.38508971 16.08776875 24.34882052 16.07521632 21.3125 16.0625 C19.25455836 16.05748497 17.19661556 16.05292207 15.13867188 16.04882812 C10.09241954 16.0377994 5.04622225 16.02053493 0 16 C0 10.72 0 5.44 0 0 Z " fill="#DED6F9" transform="translate(648,281)"/>
<path d="M0 0 C3.38550485 2.2477075 6.16152122 4.86628117 8.99609375 7.76171875 C7.50722656 8.2721875 7.50722656 8.2721875 5.98828125 8.79296875 C-7.86448596 13.68066589 -19.70462956 20.72953806 -32.00390625 28.76171875 C-35.80703495 23.24104806 -37.78622888 19.57910167 -37.00390625 12.76171875 C-33.84902682 7.08717051 -29.4505602 2.16080495 -23.3671875 -0.30859375 C-16.11462465 -2.31336722 -7.04089094 -2.90242188 0 0 Z " fill="#F9BABD" transform="translate(655.00390625,509.23828125)"/>
<path d="M0 0 C0.33 0 0.66 0 1 0 C1.495 8.91 1.495 8.91 2 18 C2 13.05 2 8.1 2 3 C3.32 2.34 4.64 1.68 6 1 C6.15018699 5.21332265 6.25805653 9.42516114 6.32958984 13.64038086 C6.35945734 15.06904286 6.40016908 16.49752649 6.45263672 17.92553711 C6.80112313 27.66607384 5.84224704 34.82175573 0 43 C-0.71542969 44.00675781 -1.43085937 45.01351562 -2.16796875 46.05078125 C-8.69024941 53.35523096 -14.79452686 58.72903478 -24.8671875 59.5 C-26.63996975 59.56371625 -28.41368336 59.60522067 -30.1875 59.625 C-31.45267456 59.64167725 -31.45267456 59.64167725 -32.7434082 59.65869141 C-41.07809083 59.46723997 -47.2555842 56.24381837 -53.38671875 50.71875 C-56.08579358 47.84322234 -58.42969117 44.63133918 -60 41 C-59.67 40.34 -59.34 39.68 -59 39 C-58.49210938 39.47050781 -57.98421875 39.94101562 -57.4609375 40.42578125 C-48.29028188 48.72058774 -40.45578359 50.69863045 -28.15625 50.3984375 C-20.93402055 49.93131165 -15.12924079 46.87935586 -9.84765625 42.01953125 C0.46564398 30.0491257 -0.22006105 14.92620972 0 0 Z " fill="#6153C4" transform="translate(648,297)"/>
<path d="M0 0 C0.33 0 0.66 0 1 0 C1 4.95 1 9.9 1 15 C73.27 14.505 73.27 14.505 147 14 C147.33 12.35 147.66 10.7 148 9 C145.0369187 5.42687255 141.64798217 2.91838573 138 0 C150.87 0 163.74 0 177 0 C177 5.28 177 10.56 177 16 C118.59 16 60.18 16 0 16 C0 10.72 0 5.44 0 0 Z " fill="#DAD1FA" transform="translate(404,281)"/>
<path d="M0 0 C0.66 0 1.32 0 2 0 C2.51046875 1.10408203 2.51046875 1.10408203 3.03125 2.23046875 C6.37772015 8.96790997 9.18128788 12.7935818 16 16 C17.155 16.598125 18.31 17.19625 19.5 17.8125 C20.325 18.204375 21.15 18.59625 22 19 C19.76426362 21.47782249 17.615053 22.80089581 14.625 24.25 C7.57342863 28.07341694 4.81702073 33.73505179 2 41 C1.34 41 0.68 41 0 41 C-0.98219627 39.23084525 -1.96065359 37.45961431 -2.9375 35.6875 C-3.48277344 34.70136719 -4.02804687 33.71523438 -4.58984375 32.69921875 C-6 30 -6 30 -7 27 C-8.65249487 26.29894157 -10.32367583 25.64199649 -12 25 C-14.71666802 23.41024612 -17.36128214 21.715494 -20 20 C-17.75259369 17.5156467 -15.54505044 16.12381961 -12.5625 14.625 C-6.15427201 11.14091488 -3.41877705 6.2270582 0 0 Z " fill="#FBFDFD" transform="translate(831,316)"/>
<path d="M0 0 C3.75163832 1.50989961 3.75163832 1.50989961 4.87890625 3.734375 C5.10449219 4.39953125 5.33007812 5.0646875 5.5625 5.75 C8.14765959 11.53231615 13.48607813 13.49021487 19 16 C19 16.99 19 17.98 19 19 C18.39671875 19.31453125 17.7934375 19.6290625 17.171875 19.953125 C9.31724975 24.15915013 5.68434506 27.925797 2 36 C-1 35 -1 35 -2.02734375 33.29296875 C-2.32769531 32.59816406 -2.62804687 31.90335937 -2.9375 31.1875 C-6.34595245 24.05264244 -10.86415132 21.8665375 -18 19 C-18 18.01 -18 17.02 -18 16 C-17.33613281 15.70867187 -16.67226562 15.41734375 -15.98828125 15.1171875 C-8.04407063 11.42921819 -4.29791319 7.69100255 0 0 Z " fill="#FDFDFA" transform="translate(174,386)"/>
<path d="M0 0 C3 1 3 1 4.2109375 2.9609375 C4.59507812 3.75757813 4.97921875 4.55421875 5.375 5.375 C7.43375498 9.24742008 8.86292802 11.22696915 13 13 C13.92619141 13.41185547 13.92619141 13.41185547 14.87109375 13.83203125 C16.5696012 14.58046813 18.28371044 15.29329253 20 16 C20 16.99 20 17.98 20 19 C19.20335937 19.30550781 18.40671875 19.61101562 17.5859375 19.92578125 C9.08723338 23.59614617 5.470039 27.44665826 2 36 C1.34 36 0.68 36 0 36 C-0.29390625 35.27554688 -0.5878125 34.55109375 -0.890625 33.8046875 C-4.8086719 25.3606209 -9.41530989 22.29218698 -18 19 C-17 16 -17 16 -14.890625 14.89453125 C-14.01921875 14.53746094 -13.1478125 14.18039062 -12.25 13.8125 C-6.77444043 11.238987 -4.65269768 8.28328954 -2 3 C-1.34 2.01 -0.68 1.02 0 0 Z " fill="#FAFDFD" transform="translate(836,437)"/>
<path d="M0 0 C0.66 0.33 1.32 0.66 2 1 C1.98362895 7.65335774 1.92852139 14.30561524 1.84741211 20.95849609 C1.82432106 23.21818913 1.80985744 25.47798844 1.80444336 27.73779297 C1.7950889 31.00034127 1.75395464 34.26123846 1.70703125 37.5234375 C1.7109639 38.52176605 1.71489655 39.5200946 1.71894836 40.54867554 C1.56298536 48.17283148 -0.27959752 54.94015933 -5.54850769 60.68978882 C-10.95675734 65.39895531 -15.95015054 65.34238755 -22.828125 65.28125 C-28.24874337 64.80060404 -30.74025471 62.39971699 -34.25 58.5 C-37.12 54.4 -37.12 54.4 -38 52 C-37.67 51.01 -37.34 50.02 -37 49 C-37 49.66 -37 50.32 -37 51 C-36.278125 51.28875 -35.55625 51.5775 -34.8125 51.875 C-33.08022454 52.56791018 -31.36521888 53.30881244 -29.6875 54.125 C-25.29900276 55.55381306 -21.22027386 56.1079299 -17.03515625 54.01953125 C-13.67597237 51.71142393 -11.40650482 49.28159748 -9 46 C-7.34051852 44.98812105 -5.67419438 43.9873454 -4 43 C-1.47485094 39.21227641 -1.66821932 36.11217314 -1.62109375 31.71875 C-1.60409927 30.9088562 -1.5871048 30.0989624 -1.56959534 29.26452637 C-1.51646886 26.67643019 -1.47617869 24.08834927 -1.4375 21.5 C-1.39353742 18.91173342 -1.34679131 16.32358953 -1.29469299 13.73547363 C-1.26280459 12.12513435 -1.23589319 10.51468721 -1.21446228 8.9041748 C-1.15513638 5.68999124 -1.02340432 3.07021297 0 0 Z " fill="#EA7E43" transform="translate(390,269)"/>
<path d="M0 0 C7.60068124 -0.21145636 14.70160135 -0.28403123 22 2 C23.19882812 2.36738281 23.19882812 2.36738281 24.421875 2.7421875 C31.240027 5.13489302 36.84359631 8.93136488 42 14 C42 14.66 42 15.32 42 16 C11.79337748 16.32912785 11.79337748 16.32912785 7 12 C7.2475 10.824375 7.2475 10.824375 7.5 9.625 C8.0623707 7.11791961 8.0623707 7.11791961 8 5 C6.8553125 4.5978125 6.8553125 4.5978125 5.6875 4.1875 C3.08770098 3.0387516 1.89784008 2.0314124 0 0 Z " fill="#A896F6" transform="translate(691,281)"/>
<path d="M0 0 C2.38971946 1.95522501 2.99970084 2.99887241 3.8125 6.0625 C4.204375 7.031875 4.59625 8.00125 5 9 C7.88318775 10.18335395 7.88318775 10.18335395 11 11 C13.375 13.125 13.375 13.125 15 15 C12.89990987 16.63340343 10.96197006 18.01852741 8.5625 19.1875 C4.92448801 21.76072799 3.14552644 25.15631221 1 29 C-1.3136313 26.90522571 -1.9825031 26.06123917 -2.875 22.9375 C-3.68859139 19.83487845 -3.68859139 19.83487845 -6.3125 18.8125 C-7.199375 18.544375 -8.08625 18.27625 -9 18 C-11.8125 16.5 -11.8125 16.5 -14 15 C-14 14.34 -14 13.68 -14 13 C-13.45730469 12.76925781 -12.91460937 12.53851562 -12.35546875 12.30078125 C-7.74033658 10.19694622 -5.2473465 8.73125578 -3 4 C-2.01755155 2.65368175 -1.02323436 1.31558703 0 0 Z " fill="#FAFDF7" transform="translate(180,575)"/>
<path d="M0 0 C2.1640625 0.59375 2.1640625 0.59375 4.7265625 2.65625 C6.59118027 6.46655588 6.87244426 9.42779058 6.1640625 13.59375 C4.52719065 17.17927881 3.47433667 18.38690055 0.1640625 20.59375 C-3.14165228 21.03035384 -5.65013137 21.30417728 -8.58984375 19.54296875 C-11.89340655 16.84439576 -13.66488802 15.09898547 -14.1484375 10.84375 C-13.75587378 6.76108731 -12.36694634 4.77558968 -9.8359375 1.59375 C-6.08467909 -0.90708894 -4.31526857 -0.61847497 0 0 Z " fill="#F5F6F7" transform="translate(390.8359375,460.40625)"/>
<path d="M0 0 C5.57894737 3.15789474 5.57894737 3.15789474 7 6 C7.40710593 10.23390162 7.25575965 12.51588352 5.25 16.3125 C1.96359018 20.23793395 1.96359018 20.23793395 -1 21 C-5.00022687 20.85713475 -7.24332729 20.61728563 -10.375 18.0625 C-13.32348955 14.32018634 -13.47592229 11.7592229 -13 7 C-9.6917275 1.44506484 -6.43313684 -0.61857085 0 0 Z " fill="#F4F5F6" transform="translate(594,460)"/>
<path d="M0 0 C0.33 0 0.66 0 1 0 C1 4.95 1 9.9 1 15 C73.27 14.505 73.27 14.505 147 14 C147.98484577 9.07577115 148.03342293 8.18645898 146 4 C148.3984375 4.21875 148.3984375 4.21875 151 5 C151.9140625 7.03125 151.9140625 7.03125 152.625 9.5 C153.6817341 12.10644723 153.6817341 12.10644723 156 14 C162.14391754 15.53634003 168.71606307 15.15416921 175 15 C175 15.33 175 15.66 175 16 C117.25 16 59.5 16 0 16 C0 10.72 0 5.44 0 0 Z " fill="#CCC4F4" transform="translate(404,281)"/>
<path d="M0 0 C0.66 0 1.32 0 2 0 C2.54269531 1.16917969 3.08539062 2.33835937 3.64453125 3.54296875 C4.36704494 5.09121237 5.08970913 6.63938576 5.8125 8.1875 C6.34713867 9.34088867 6.34713867 9.34088867 6.89257812 10.51757812 C8.74617625 14.47985668 10.64956197 18.30009912 13 22 C12.01 22 11.02 22 10 22 C9.67 23.98 9.34 25.96 9 28 C2.95883287 20.61635129 0 9.46412582 0 0 Z " fill="#15986C" transform="translate(590,660)"/>
<path d="M0 0 C8.37896748 3.92130911 15.96205594 7.87438202 23 14 C22.01 14.33 21.02 14.66 20 15 C20.33 16.65 20.66 18.3 21 20 C16.02059747 15.77833264 11.15600624 11.44933482 6.33203125 7.05078125 C4.06712396 4.98970831 4.06712396 4.98970831 1.69921875 3.35546875 C1.13847656 2.90816406 0.57773437 2.46085938 0 2 C0 1.34 0 0.68 0 0 Z " fill="#0E977E" transform="translate(758,537)"/>
<path d="M0 0 C0.66 0 1.32 0 2 0 C2.20625 0.804375 2.4125 1.60875 2.625 2.4375 C3.07875 3.283125 3.5325 4.12875 4 5 C7.05272465 5.89830839 7.05272465 5.89830839 10 6 C10 6.66 10 7.32 10 8 C9.05125 8.20625 8.1025 8.4125 7.125 8.625 C3.70833333 9.70833333 3.70833333 9.70833333 2.625 13.125 C2.41875 14.07375 2.2125 15.0225 2 16 C-1 12.25 -1 12.25 -1 10 C-3.475 9.01 -3.475 9.01 -6 8 C-6 7.34 -6 6.68 -6 6 C-5.195625 5.525625 -4.39125 5.05125 -3.5625 4.5625 C-0.7081924 3.20016328 -0.7081924 3.20016328 0 0 Z " fill="#F8FCFD" transform="translate(788,277)"/>
<path d="M0 0 C2.3984375 0.21875 2.3984375 0.21875 5 1 C5.9140625 3.03125 5.9140625 3.03125 6.625 5.5 C7.6817341 8.10644723 7.6817341 8.10644723 10 10 C16.14391754 11.53634003 22.71606307 11.15416921 29 11 C29 11.33 29 11.66 29 12 C19.1 12 9.2 12 -1 12 C-0.01 10.68 0.98 9.36 2 8 C1.71814575 5.11099395 0.91884332 2.75652997 0 0 Z " fill="#C3B6F9" transform="translate(550,285)"/>
<path d="M0 0 C8.60308032 0.44953032 16.65932321 1.86101998 25 4 C23.1875 5.0625 23.1875 5.0625 21 6 C20.01 5.67 19.02 5.34 18 5 C17.02391783 7.92824652 16.91773332 9.95613276 17 13 C16.773125 12.4225 16.54625 11.845 16.3125 11.25 C13.70723897 6.78383824 9.78373993 4.6401394 5 3 C5 2.34 5 1.68 5 1 C3.35 1 1.7 1 0 1 C0 0.67 0 0.34 0 0 Z " fill="#8BE563" transform="translate(712,525)"/>
<path d="M0 0 C0.33 0 0.66 0 1 0 C1.07429025 4.34159838 1.12866741 8.6828577 1.16479492 13.02490234 C1.17985923 14.50120491 1.20031482 15.97746288 1.22631836 17.45361328 C1.26280739 19.57856258 1.27974933 21.70291901 1.29296875 23.828125 C1.31653442 25.7447998 1.31653442 25.7447998 1.34057617 27.70019531 C0.98097899 31.18429248 0.48813693 32.58372262 -2 35 C-4.26171875 35.390625 -4.26171875 35.390625 -6.6875 35.25 C-7.49574219 35.21390625 -8.30398438 35.1778125 -9.13671875 35.140625 C-9.75160156 35.09421875 -10.36648438 35.0478125 -11 35 C-10.67 34.34 -10.34 33.68 -10 33 C-7.69 33 -5.38 33 -3 33 C-1.94790016 29.4390467 -1.70809577 25.96305572 -1.46484375 22.265625 C-1.37783203 20.97011719 -1.29082031 19.67460937 -1.20117188 18.33984375 C-1.11320272 16.97656757 -1.0253131 15.61328625 -0.9375 14.25 C-0.84603551 12.87107166 -0.75424225 11.49216509 -0.66210938 10.11328125 C-0.4381689 6.74238774 -0.2175957 3.37130804 0 0 Z " fill="#FCEBC2" transform="translate(607,272)"/>
<path d="M0 0 C0.66 0 1.32 0 2 0 C2 2.97 2 5.94 2 9 C-7.24 9 -16.48 9 -26 9 C-26 8.67 -26 8.34 -26 8 C-25.16807129 7.970271 -25.16807129 7.970271 -24.31933594 7.93994141 C-21.79576307 7.84442349 -19.27298776 7.73485433 -16.75 7.625 C-15.87730469 7.5940625 -15.00460937 7.563125 -14.10546875 7.53125 C-13.26113281 7.49257813 -12.41679688 7.45390625 -11.546875 7.4140625 C-10.77182617 7.3826416 -9.99677734 7.3512207 -9.19824219 7.31884766 C-6.73639104 6.9617644 -5.10504517 6.31833968 -3 5 C-1.97695052 3.34738161 -0.97383946 1.68208635 0 0 Z " fill="#D6DAE8" transform="translate(721,501)"/>
<path d="M0 0 C0 7.19131577 -9.21789217 14.33520232 -14.0625 19.1875 C-15.36988385 20.46359603 -16.68039375 21.73654721 -18 23 C-18.99 22.67 -19.98 22.34 -21 22 C-19.82244141 20.83984375 -19.82244141 20.83984375 -18.62109375 19.65625 C-13.3352904 14.42429756 -8.11928779 9.20035426 -3.3046875 3.5234375 C-2.25728019 2.30041699 -1.13860468 1.13860468 0 0 Z " fill="#44CE7C" transform="translate(732,663)"/>
<path d="M0 0 C2.31 0 4.62 0 7 0 C7 0.66 7 1.32 7 2 C7.85464844 1.98839844 8.70929688 1.97679687 9.58984375 1.96484375 C10.69457031 1.95582031 11.79929687 1.94679688 12.9375 1.9375 C14.03964844 1.92589844 15.14179688 1.91429687 16.27734375 1.90234375 C19 2 19 2 20 3 C23.5248229 3.28727535 27.04983355 3.44905925 30.58203125 3.62109375 C33.64509871 3.96065666 35.42344265 4.39695298 38 6 C30.16811351 6.37964261 22.78901341 5.85001719 15.0625 4.625 C13.85630005 4.43587036 13.85630005 4.43587036 12.62573242 4.24291992 C8.25353353 3.51186382 4.17512954 2.54138009 0 1 C0 0.67 0 0.34 0 0 Z " fill="#BBECDD" transform="translate(261,778)"/>
<path d="M0 0 C-2.65197185 2.65197185 -5.55356766 3.584501 -9 5 C-9.99 5.495 -9.99 5.495 -11 6 C-12.875 6.16796875 -12.875 6.16796875 -15 6.1875 C-16.051875 6.20876953 -16.051875 6.20876953 -17.125 6.23046875 C-19 6 -19 6 -21 4 C-18.25336296 3.13343002 -15.5035757 2.28148214 -12.75 1.4375 C-11.97269531 1.19064453 -11.19539062 0.94378906 -10.39453125 0.68945312 C-9.26337891 0.34624023 -9.26337891 0.34624023 -8.109375 -0.00390625 C-7.07248535 -0.32597046 -7.07248535 -0.32597046 -6.01464844 -0.65454102 C-3.71321296 -1.0491764 -2.20383318 -0.71084423 0 0 Z " fill="#B4E379" transform="translate(686,527)"/>
<path d="M0 0 C25.76376337 -0.20638953 25.76376337 -0.20638953 38 1 C38 1.33 38 1.66 38 2 C25.11815102 3.36569746 12.84116012 2.45066756 0 1 C0 0.67 0 0.34 0 0 Z " fill="#AAE4E7" transform="translate(401,790)"/>
<path d="M0 0 C1.98 0.99 3.96 1.98 6 3 C6 3.66 6 4.32 6 5 C6.66 5 7.32 5 8 5 C8 5.66 8 6.32 8 7 C8.99 7 9.98 7 11 7 C12.5 8.49609375 12.5 8.49609375 14 10.4375 C16.37699685 13.50431929 16.37699685 13.50431929 20 15 C20.33 16.65 20.66 18.3 21 20 C16.02059747 15.77833264 11.15600624 11.44933482 6.33203125 7.05078125 C4.06712396 4.98970831 4.06712396 4.98970831 1.69921875 3.35546875 C1.13847656 2.90816406 0.57773437 2.46085938 0 2 C0 1.34 0 0.68 0 0 Z " fill="#19B26B" transform="translate(758,537)"/>
<path d="M0 0 C12.03000164 -0.16631339 23.9895138 0.3475014 36 1 C36 1.33 36 1.66 36 2 C31.68830903 2.22804595 27.37575002 2.42884186 23.0625 2.625 C21.85013672 2.68945312 20.63777344 2.75390625 19.38867188 2.8203125 C12.50289377 3.11888282 6.64259974 2.87741222 0 1 C0 0.67 0 0.34 0 0 Z " fill="#ACE3E0" transform="translate(359,788)"/>
<path d="M0 0 C0.99 0.33 1.98 0.66 3 1 C-3.435 6.94 -3.435 6.94 -10 13 C-10.66 12.34 -11.32 11.68 -12 11 C-10.50589642 7.19299032 -8.3813123 5.50238376 -5.0625 3.1875 C-4.18722656 2.56230469 -3.31195312 1.93710937 -2.41015625 1.29296875 C-1.61480469 0.86628906 -0.81945312 0.43960938 0 0 Z " fill="#C3CBEA" transform="translate(617,540)"/>
<path d="M0 0 C3.09423168 3.09423168 3.93706005 6.5523812 4.125 10.875 C4.08375 11.57625 4.0425 12.2775 4 13 C0.17053157 11.54744301 -1.12050295 9.57104439 -3 6 C-2.34 5.67 -1.68 5.34 -1 5 C-0.34444881 2.47266765 -0.34444881 2.47266765 0 0 Z " fill="#BFF897" transform="translate(605,674)"/>
<path d="M0 0 C0.66 0 1.32 0 2 0 C4.79878147 6.34390467 5.11769609 12.17362651 5 19 C3.32518285 15.912511 2.29597217 12.88620072 1.375 9.5 C1.11460937 8.5615625 0.85421875 7.623125 0.5859375 6.65625 C0 4 0 4 0 0 Z " fill="#088363" transform="translate(590,660)"/>
<path d="M0 0 C1.65 0.33 3.3 0.66 5 1 C4.67 2.98 4.34 4.96 4 7 C2.68 7 1.36 7 0 7 C-1.125 2.25 -1.125 2.25 0 0 Z " fill="#F7FDF0" transform="translate(200,628)"/>
<path d="M0 0 C0.99 0.495 0.99 0.495 2 1 C3.43231774 5.29695323 4.25753016 9.54518099 5 14 C5.61420312 16.35206465 6.30126838 18.6708946 7 21 C6.01 21 5.02 21 4 21 C3.32944715 18.06333774 2.66340947 15.12577641 2 12.1875 C1.80921875 11.35412109 1.6184375 10.52074219 1.421875 9.66210938 C1.24140625 8.85966797 1.0609375 8.05722656 0.875 7.23046875 C0.70742188 6.49207764 0.53984375 5.75368652 0.3671875 4.99291992 C0 3 0 3 0 0 Z " fill="#9AC9ED" transform="translate(836,605)"/>
<path d="M0 0 C1.65 0 3.3 0 5 0 C4.26330078 0.50466797 4.26330078 0.50466797 3.51171875 1.01953125 C1.22719594 4.01243323 1.681424 7.08795135 1.8125 10.6875 C1.83280273 11.7403418 1.83280273 11.7403418 1.85351562 12.81445312 C1.88879818 14.54329829 1.94260417 16.27174765 2 18 C1.34 18.33 0.68 18.66 0 19 C0 12.73 0 6.46 0 0 Z " fill="#7465D9" transform="translate(649,297)"/>
<path d="M0 0 C0.66 0.33 1.32 0.66 2 1 C-5.29840547 9.44646925 -5.29840547 9.44646925 -9 13 C-9.99 12.67 -10.98 12.34 -12 12 C-8.04 8.04 -4.08 4.08 0 0 Z " fill="#1E9688" transform="translate(734,580)"/>
<path d="M0 0 C4.29 0 8.58 0 13 0 C11.02 2.97 11.02 2.97 9 6 C6.03 4.35 3.06 2.7 0 1 C0 0.67 0 0.34 0 0 Z " fill="#A89BE5" transform="translate(691,281)"/>
<path d="M0 0 C3.83508741 5.75263111 3.11884965 12.31800851 3 19 C0.43238452 16.38521048 0.0043655 15.05471424 -0.29296875 11.328125 C-0.27316751 9.96843965 -0.23759202 8.6089066 -0.1875 7.25 C-0.17396484 6.55261719 -0.16042969 5.85523438 -0.14648438 5.13671875 C-0.1112945 3.42414459 -0.05749155 1.71197059 0 0 Z " fill="#45488A" transform="translate(247,637)"/>
<path d="M0 0 C4.13105614 0.60750826 7.43299325 1.81115495 11 4 C11.875 6.1875 11.875 6.1875 12 8 C8.21516391 8 7.22592069 6.89417485 4.3125 4.5625 C3.50425781 3.92441406 2.69601562 3.28632813 1.86328125 2.62890625 C1.24839844 2.09136719 0.63351562 1.55382812 0 1 C0 0.67 0 0.34 0 0 Z " fill="#34377A" transform="translate(723,287)"/>
<path d="M0 0 C0.33 0.99 0.66 1.98 1 3 C-2.63 6.63 -6.26 10.26 -10 14 C-10.66 13.67 -11.32 13.34 -12 13 C-8.04 8.71 -4.08 4.42 0 0 Z " fill="#1D9283" transform="translate(714,601)"/>
<path d="M0 0 C6.7685324 -0.10152799 13.30324864 -0.03026944 20 1 C20 1.33 20 1.66 20 2 C18.741875 2.103125 17.48375 2.20625 16.1875 2.3125 C13.39500343 2.64858808 12.25566879 2.80025876 10 4.5625 C9.67 5.036875 9.34 5.51125 9 6 C8.67 4.68 8.34 3.36 8 2 C5.36 1.67 2.72 1.34 0 1 C0 0.67 0 0.34 0 0 Z " fill="#E2E6F7" transform="translate(253,391)"/>
<path d="M0 0 C0.66 0.33 1.32 0.66 2 1 C-5.11389522 9.6309795 -5.11389522 9.6309795 -10 12 C-8.52278578 8.54798361 -6.56205999 6.35038064 -3.875 3.75 C-3.15054688 3.04359375 -2.42609375 2.3371875 -1.6796875 1.609375 C-1.12539063 1.07828125 -0.57109375 0.5471875 0 0 Z " fill="#188987" transform="translate(631,603)"/>
<path d="M0 0 C0.66 0.33 1.32 0.66 2 1 C-1.63 4.63 -5.26 8.26 -9 12 C-9.66 11.67 -10.32 11.34 -11 11 C-9.92173635 9.72486237 -8.83714481 8.45507431 -7.75 7.1875 C-7.14671875 6.47980469 -6.5434375 5.77210938 -5.921875 5.04296875 C-4.07629602 3.08110329 -2.20054668 1.54330375 0 0 Z " fill="#937FE7" transform="translate(294,304)"/>
<path d="M0 0 C0.66 0.33 1.32 0.66 2 1 C-0.97 4.3 -3.94 7.6 -7 11 C-7.99 10.67 -8.98 10.34 -10 10 C-6.7 6.7 -3.4 3.4 0 0 Z " fill="#BADB95" transform="translate(624,556)"/>
<path d="M0 0 C0.66 0 1.32 0 2 0 C0.59155282 3.21524305 -1.10344786 5.32183868 -3.625 7.75 C-4.57246094 8.67039062 -4.57246094 8.67039062 -5.5390625 9.609375 C-6.02117187 10.06828125 -6.50328125 10.5271875 -7 11 C-7.66 10.67 -8.32 10.34 -9 10 C-7.8758824 8.70756532 -6.75067408 7.41607925 -5.625 6.125 C-4.99851562 5.40570313 -4.37203125 4.68640625 -3.7265625 3.9453125 C-2.52573166 2.5923402 -1.2791655 1.2791655 0 0 Z " fill="#252C42" transform="translate(262,284)"/>
<path d="M0 0 C1.74965358 -0.05429959 3.49979787 -0.09292823 5.25 -0.125 C6.22453125 -0.14820313 7.1990625 -0.17140625 8.203125 -0.1953125 C11.0196498 0.00137219 12.60949036 0.55431084 15 2 C13.35 2.33 11.7 2.66 10 3 C9.67 5.31 9.34 7.62 9 10 C8.01 10 7.02 10 6 10 C6.33 9.67 6.66 9.34 7 9 C7.23075082 7.65252916 7.41153063 6.29622435 7.5625 4.9375 C7.706875 3.638125 7.85125 2.33875 8 1 C5.36 1 2.72 1 0 1 C0 0.67 0 0.34 0 0 Z " fill="#EAD394" transform="translate(379,237)"/>
<path d="M0 0 C1.08667969 0.29197266 1.08667969 0.29197266 2.1953125 0.58984375 C2.74960937 0.74582031 3.30390625 0.90179687 3.875 1.0625 C2.0625 2.125 2.0625 2.125 -0.125 3.0625 C-1.115 2.7325 -2.105 2.4025 -3.125 2.0625 C-4.10108217 4.99074652 -4.20726668 7.01863276 -4.125 10.0625 C-6.21850689 6.6605513 -6.30442163 4.00977588 -6.125 0.0625 C-3.57797384 -1.21101308 -2.6967055 -0.73941925 0 0 Z " fill="#75E06A" transform="translate(733.125,527.9375)"/>
<path d="M0 0 C0.66 0.33 1.32 0.66 2 1 C0.57084149 2.34227046 -0.86862672 3.67357096 -2.3125 5 C-3.11300781 5.7425 -3.91351562 6.485 -4.73828125 7.25 C-7 9 -7 9 -10 9 C-8.60064115 5.59635112 -7.12995268 4.09193812 -4 2.1875 C-3.29875 1.74792969 -2.5975 1.30835938 -1.875 0.85546875 C-1.25625 0.57316406 -0.6375 0.29085937 0 0 Z " fill="#A0C8F0" transform="translate(786,748)"/>
<path d="M0 0 C0.33 0 0.66 0 1 0 C1.66 5.61 2.32 11.22 3 17 C-0.06928339 13.93071661 -0.44148906 10.22064594 -1 6 C-0.625 2.4375 -0.625 2.4375 0 0 Z " fill="#C8DDC5" transform="translate(230,637)"/>
<path d="M0 0 C3.465 1.98 3.465 1.98 7 4 C6.01 4.33 5.02 4.66 4 5 C4.33 6.65 4.66 8.3 5 10 C2.66063182 7.87330165 1.19346152 5.93775144 0 3 C0 2.01 0 1.02 0 0 Z " fill="#E48B50" transform="translate(596,318)"/>
<path d="M0 0 C2.83374881 3.20336822 3.5205537 5.78087253 4 10 C-0.875 5.25 -0.875 5.25 -2 3 C-1.34 3 -0.68 3 0 3 C0 2.01 0 1.02 0 0 Z " fill="#85EA84" transform="translate(609,684)"/>
<path d="M0 0 C0 3.72038015 -0.90324391 4.44902879 -3.3125 7.1875 C-3.92738281 7.90292969 -4.54226563 8.61835937 -5.17578125 9.35546875 C-7 11 -7 11 -10 11 C-6.7 7.37 -3.4 3.74 0 0 Z " fill="#2E839B" transform="translate(726,657)"/>
<path d="M0 0 C0 3 0 3 -1.2421875 4.60546875 C-1.78101563 5.12753906 -2.31984375 5.64960938 -2.875 6.1875 C-3.40867187 6.71730469 -3.94234375 7.24710937 -4.4921875 7.79296875 C-6 9 -6 9 -8 9 C-6.4169423 4.7257442 -3.49431596 2.73468206 0 0 Z " fill="#282F4B" transform="translate(373,451)"/>
<path d="M0 0 C0.66 0.33 1.32 0.66 2 1 C0.71451591 2.33929505 -0.57858155 3.67128643 -1.875 5 C-2.59429688 5.7425 -3.31359375 6.485 -4.0546875 7.25 C-6 9 -6 9 -8 9 C-6.4169423 4.7257442 -3.49431596 2.73468206 0 0 Z " fill="#FCCE74" transform="translate(622,250)"/>
<path d="M0 0 C0.33 0 0.66 0 1 0 C1 2.97 1 5.94 1 9 C-0.65 8.67 -2.3 8.34 -4 8 C-2.68 5.36 -1.36 2.72 0 0 Z " fill="#D7DEFC" transform="translate(722,501)"/>
<path d="M0 0 C0.66 0.33 1.32 0.66 2 1 C-0.97 3.64 -3.94 6.28 -7 9 C-7 6 -7 6 -4.625 3.375 C-2 1 -2 1 0 0 Z " fill="#B7DFF9" transform="translate(849,458)"/>
<path d="M0 0 C3.96 0.33 7.92 0.66 12 1 C11.01 1.33 10.02 1.66 9 2 C9 2.66 9 3.32 9 4 C7.68 3.67 6.36 3.34 5 3 C5 2.34 5 1.68 5 1 C3.35 1 1.7 1 0 1 C0 0.67 0 0.34 0 0 Z " fill="#91D375" transform="translate(712,525)"/>
<path d="M0 0 C0.66 0.33 1.32 0.66 2 1 C0.02 2.98 -1.96 4.96 -4 7 C-4.99 6.67 -5.98 6.34 -7 6 C-4.69 4.02 -2.38 2.04 0 0 Z " fill="#FACE76" transform="translate(379,250)"/>
<path d="M0 0 C0.66 0.33 1.32 0.66 2 1 C2.1875 4.375 2.1875 4.375 2 8 C1.01 8.66 0.02 9.32 -1 10 C-0.67 6.7 -0.34 3.4 0 0 Z " fill="#94BBE5" transform="translate(840,662)"/>
<path d="M0 0 C-1.1875 1.5625 -1.1875 1.5625 -3 3 C-5.6875 2.6875 -5.6875 2.6875 -8 2 C-5.14066998 -0.85933002 -3.8625627 -1.2875209 0 0 Z " fill="#B6E37F" transform="translate(666,533)"/>
<path d="M0 0 C0.66 0.33 1.32 0.66 2 1 C0.38405168 3.04119788 -1.2856382 5.04072937 -3 7 C-3.66 7 -4.32 7 -5 7 C-3.70700306 4.11562221 -2.34058637 2.12780579 0 0 Z " fill="#2E3550" transform="translate(575,452)"/>
<path d="M0 0 C0.66 0 1.32 0 2 0 C2.66 2.31 3.32 4.62 4 7 C3.01 7 2.02 7 1 7 C0.67 4.69 0.34 2.38 0 0 Z " fill="#2A9B53" transform="translate(590,660)"/>
<path d="M0 0 C2.5 2.3125 2.5 2.3125 5 5 C5 5.99 5 6.98 5 8 C4.34 8 3.68 8 3 8 C0 2.25 0 2.25 0 0 Z " fill="#6054BC" transform="translate(343,334)"/>
</svg>
